<svg width="542" height="526" viewBox="0 0 542 526" fill="none" xmlns="http://www.w3.org/2000/svg">
<g clip-path="url(#clip0_100_98)">
<path d="M517.009 273.899C536.964 146.162 430.497 17.4044 290.704 1.41631C288.965 1.21226 287.226 1.03221 285.475 0.852162C187.798 -8.84634 98.5164 65.825 72.985 122.792C47.4536 179.746 -19.355 233.94 5.40889 339.508C30.1728 445.075 97.4491 501.334 255.171 517.982C412.904 534.63 441.997 489.474 483.874 390.845C498.385 356.66 510.461 315.85 517.009 273.899Z" fill="#92E3A9"/>
<path opacity="0.7" d="M517.009 273.899C536.964 146.162 430.497 17.4044 290.704 1.41631C288.965 1.21226 287.226 1.03221 285.475 0.852162C187.798 -8.84634 98.5164 65.825 72.985 122.792C47.4536 179.746 -19.355 233.94 5.40889 339.508C30.1728 445.075 97.4491 501.334 255.171 517.982C412.904 534.63 441.997 489.474 483.874 390.845C498.385 356.66 510.461 315.85 517.009 273.899Z" fill="#E3FFF2"/>
<path d="M57.9946 518.306H14.9785" stroke="#263238" stroke-miterlimit="10"/>
<path d="M542 518.306H65.1895" stroke="#263238" stroke-miterlimit="10"/>
<path d="M395.562 96.5673L382.919 109.222L395.562 121.877L408.205 109.222L395.562 96.5673Z" stroke="#263238" stroke-miterlimit="10"/>
<path d="M112.203 47.3729L99.5596 60.0276L112.203 72.6824L124.846 60.0277L112.203 47.3729Z" stroke="#263238" stroke-miterlimit="10"/>
<path d="M508.51 303.26L495.867 315.915L508.51 328.57L521.154 315.915L508.51 303.26Z" stroke="#263238" stroke-miterlimit="10"/>
<path d="M262.124 359.901L249.48 372.556L262.124 385.211L274.767 372.556L262.124 359.901Z" stroke="#263238" stroke-miterlimit="10"/>
<path d="M28.8122 218.304L16.1689 230.959L28.8122 243.614L41.4554 230.959L28.8122 218.304Z" stroke="#263238" stroke-miterlimit="10"/>
<path d="M92.8133 191.514L86.7334 197.599L92.8133 203.685L98.8933 197.599L92.8133 191.514Z" stroke="#263238" stroke-miterlimit="10"/>
<path d="M413.035 115.904L406.955 121.989L413.035 128.075L419.115 121.989L413.035 115.904Z" stroke="#263238" stroke-miterlimit="10"/>
<path d="M296.283 44.345L290.203 50.4305L296.283 56.5159L302.363 50.4305L296.283 44.345Z" stroke="#263238" stroke-miterlimit="10"/>
<path d="M294.083 349.911L288.003 355.996L294.083 362.082L300.163 355.996L294.083 349.911Z" stroke="#263238" stroke-miterlimit="10"/>
<path d="M398.57 430.238L392.49 436.323L398.57 442.408L404.65 436.323L398.57 430.238Z" stroke="#263238" stroke-miterlimit="10"/>
<path d="M177.966 473.3L171.886 479.385L177.966 485.47L184.046 479.385L177.966 473.3Z" stroke="#263238" stroke-miterlimit="10"/>
<path d="M212.623 475.443C214.062 476.067 217.587 475.995 217.587 475.995C217.623 475.995 216.832 473.69 216.76 473.546C215.992 471.926 213.546 469.261 211.555 469.525C210.128 469.717 209.325 471.158 209.648 472.502C209.984 473.883 211.399 474.915 212.623 475.443Z" fill="#263238"/>
<path d="M213.846 485.658C215.345 485.874 218.487 484.961 218.727 484.889C219.219 486.654 219.878 488.418 220.634 490.171C221.066 491.167 221.533 492.163 222.013 493.159C221.725 492.739 221.461 492.367 221.425 492.319C220.25 490.963 217.192 489.03 215.345 489.823C214.014 490.387 213.63 491.983 214.29 493.196C214.973 494.432 216.604 495.056 217.924 495.248C219.267 495.44 221.965 494.72 222.672 494.516C222.864 494.9 223.044 495.272 223.236 495.656C224.148 497.469 225.059 499.281 225.91 501.07C226.21 501.706 226.474 502.342 226.75 502.978C226.498 502.606 226.282 502.294 226.234 502.246C225.059 500.889 222.001 498.957 220.154 499.749C218.823 500.313 218.439 501.91 219.099 503.122C219.782 504.358 221.413 504.983 222.732 505.175C224.016 505.367 226.51 504.718 227.349 504.478C227.613 505.139 227.865 505.799 228.093 506.447C228.237 506.891 228.405 507.311 228.513 507.767C228.633 508.211 228.765 508.668 228.884 509.1C229.088 509.952 229.304 510.84 229.484 511.68C229.616 512.268 229.724 512.821 229.844 513.385C229.556 512.749 228.968 511.524 228.896 511.428C227.949 509.916 225.215 507.539 223.26 508.031C221.857 508.391 221.233 509.904 221.713 511.212C222.205 512.545 223.716 513.397 224.999 513.793C226.402 514.225 229.532 513.829 229.916 513.781C230.108 514.717 230.276 515.617 230.419 516.482C230.527 517.118 230.635 517.73 230.731 518.318H231.978C231.859 517.658 231.727 516.974 231.595 516.265C231.403 515.317 231.187 514.309 230.959 513.277C231.199 513.181 232.518 512.641 233.705 511.98C234.737 513.097 237.363 514.393 237.699 514.561C237.339 515.437 236.979 516.301 236.631 517.094C236.452 517.514 236.272 517.922 236.092 518.318H237.411C237.519 518.066 237.615 517.826 237.723 517.562C238.094 516.674 238.466 515.701 238.838 514.717C239.21 514.801 242.304 515.425 243.743 515.101C245.05 514.801 246.633 514.069 247.209 512.773C247.784 511.512 247.269 509.952 245.901 509.484C243.995 508.848 241.093 511.008 240.037 512.448C239.977 512.532 239.402 513.529 239.042 514.165C239.198 513.757 239.342 513.361 239.498 512.953C239.797 512.124 240.085 511.284 240.385 510.396C240.517 509.952 240.649 509.52 240.781 509.064C240.925 508.619 241.021 508.139 241.141 507.671C241.404 506.579 241.608 505.475 241.8 504.346C242.52 504.61 245.11 505.511 246.453 505.415C247.784 505.319 249.463 504.827 250.231 503.638C250.986 502.474 250.722 500.853 249.427 500.193C247.64 499.269 244.45 500.974 243.179 502.234C243.095 502.318 242.292 503.326 241.86 503.89C241.968 503.218 242.076 502.534 242.16 501.85C242.412 499.857 242.592 497.841 242.795 495.824C242.855 495.212 242.927 494.588 242.987 493.976C243.239 494.072 246.297 495.212 247.796 495.104C249.127 495.008 250.806 494.516 251.574 493.328C252.329 492.163 252.065 490.543 250.77 489.883C248.983 488.958 245.793 490.663 244.522 491.923C244.426 492.019 243.263 493.472 242.987 493.856C243.131 492.499 243.287 491.155 243.491 489.823C243.779 487.998 244.151 486.222 244.642 484.517C244.762 484.565 247.94 485.766 249.475 485.658C250.806 485.562 252.485 485.069 253.253 483.881C254.008 482.717 253.744 481.096 252.449 480.436C250.662 479.512 247.472 481.216 246.201 482.477C246.105 482.573 244.858 484.145 244.642 484.445C244.666 484.349 244.69 484.241 244.726 484.133C245.278 482.333 246.033 480.652 246.825 479.116C247.281 478.228 247.772 477.399 248.264 476.595C248.84 476.883 251.454 478.156 252.845 478.204C254.176 478.252 255.903 477.952 256.802 476.859C257.678 475.791 257.594 474.147 256.383 473.342C254.716 472.226 251.346 473.57 249.943 474.687C249.871 474.747 249.163 475.455 248.66 475.971C248.887 475.611 249.115 475.239 249.343 474.903C250.183 473.642 251.034 472.526 251.79 471.554C252.221 471.002 252.629 470.51 253.013 470.066C253.72 470.054 256.55 469.969 257.798 469.381C259.009 468.817 260.388 467.749 260.688 466.369C260.976 465.012 260.136 463.596 258.697 463.44C256.706 463.224 254.332 465.96 253.6 467.593C253.54 467.737 252.809 470.066 252.845 470.066C252.845 470.066 252.881 470.066 252.893 470.066C252.509 470.498 252.113 470.954 251.694 471.47C250.914 472.43 250.039 473.522 249.175 474.771C248.3 476.019 247.388 477.399 246.561 478.936C245.722 480.484 244.93 482.153 244.33 483.965C244.318 483.989 244.318 484.013 244.318 484.025C244.33 483.437 244.306 481.793 244.282 481.661C244.055 479.884 242.568 476.583 240.589 476.211C239.174 475.947 237.963 477.063 237.855 478.444C237.735 479.86 238.766 481.264 239.761 482.165C240.889 483.173 244.007 484.145 244.258 484.217C243.707 485.958 243.275 487.794 242.939 489.667C242.747 490.747 242.592 491.827 242.448 492.919C242.436 492.415 242.436 491.959 242.424 491.887C242.196 490.111 240.709 486.81 238.73 486.45C237.303 486.186 236.104 487.302 235.996 488.682C235.876 490.099 236.907 491.503 237.903 492.403C238.91 493.304 241.56 494.192 242.268 494.42C242.22 494.84 242.16 495.26 242.112 495.68C241.872 497.697 241.644 499.701 241.356 501.67C241.26 502.366 241.129 503.038 241.009 503.722C240.997 503.266 240.997 502.894 240.985 502.834C240.757 501.058 239.27 497.757 237.291 497.397C235.864 497.133 234.665 498.249 234.557 499.629C234.437 501.046 235.468 502.45 236.464 503.35C237.435 504.214 239.869 505.055 240.697 505.319C240.553 506.015 240.409 506.699 240.229 507.371C240.097 507.827 240.013 508.259 239.857 508.716C239.713 509.16 239.57 509.604 239.438 510.036C239.138 510.864 238.826 511.716 238.514 512.52C238.298 513.085 238.082 513.613 237.867 514.141C237.975 513.457 238.154 512.1 238.166 511.98C238.19 510.792 237.771 508.848 236.931 507.491C236.931 507.311 236.931 507.143 236.895 506.963C236.679 505.595 235.384 504.574 233.993 504.947C232.05 505.463 230.827 508.872 230.731 510.66C230.731 510.768 230.791 511.92 230.851 512.641C230.755 512.22 230.659 511.812 230.563 511.38C230.359 510.528 230.132 509.676 229.892 508.752C229.76 508.319 229.628 507.875 229.496 507.419C229.376 506.975 229.184 506.519 229.028 506.063C228.645 505.019 228.201 503.974 227.745 502.93C228.501 502.75 231.151 502.078 232.218 501.25C233.286 500.433 234.401 499.101 234.401 497.685C234.389 496.292 233.274 495.092 231.835 495.248C229.844 495.464 228.105 498.645 227.745 500.397C227.721 500.505 227.601 501.802 227.553 502.51C227.266 501.886 226.99 501.262 226.678 500.637C225.79 498.837 224.831 497.048 223.884 495.26C223.596 494.708 223.308 494.168 223.02 493.616C223.284 493.556 226.462 492.811 227.661 491.899C228.717 491.083 229.844 489.751 229.844 488.334C229.832 486.942 228.717 485.742 227.278 485.898C225.287 486.114 223.548 489.295 223.188 491.047C223.164 491.179 222.996 493.039 222.972 493.508C222.349 492.295 221.725 491.083 221.173 489.871C220.406 488.19 219.734 486.498 219.219 484.805C219.339 484.781 222.661 484.025 223.884 483.089C224.951 482.273 226.066 480.94 226.066 479.524C226.054 478.132 224.939 476.931 223.5 477.087C221.509 477.303 219.77 480.484 219.411 482.237C219.387 482.369 219.207 484.373 219.195 484.733C219.159 484.637 219.123 484.529 219.087 484.433C218.547 482.621 218.259 480.808 218.067 479.092C217.96 478.096 217.9 477.135 217.876 476.199C218.511 476.127 221.389 475.743 222.589 475.011C223.728 474.315 224.999 473.114 225.143 471.71C225.287 470.33 224.303 469.009 222.864 469.009C220.862 469.009 218.787 471.974 218.235 473.678C218.199 473.774 218.008 474.747 217.864 475.467C217.852 475.047 217.84 474.615 217.84 474.207C217.84 472.694 217.936 471.302 218.032 470.066C218.091 469.369 218.163 468.733 218.223 468.145C218.799 467.749 221.125 466.105 221.833 464.94C222.529 463.8 223.104 462.143 222.577 460.823C222.073 459.527 220.598 458.819 219.315 459.479C217.528 460.403 217.06 463.992 217.36 465.756C217.384 465.912 218.055 468.253 218.091 468.229C218.091 468.229 218.115 468.205 218.127 468.205C218.043 468.769 217.972 469.381 217.9 470.042C217.78 471.278 217.648 472.658 217.612 474.183C217.576 475.707 217.576 477.363 217.732 479.104C217.888 480.856 218.139 482.681 218.643 484.541C218.643 484.565 218.655 484.589 218.667 484.601C218.355 484.109 217.42 482.753 217.336 482.657C216.161 481.3 213.103 479.368 211.256 480.16C209.925 480.724 209.541 482.321 210.201 483.533C210.884 484.853 212.515 485.465 213.846 485.658Z" fill="#263238"/>
<path d="M248.239 476.223C248.275 476.247 248.875 473.883 248.899 473.727C249.151 471.95 248.575 468.373 246.776 467.497C245.481 466.873 244.018 467.629 243.55 468.925C243.071 470.258 243.682 471.89 244.402 473.018C245.265 474.339 248.239 476.223 248.239 476.223Z" fill="#263238"/>
<path d="M195.977 229.535H321.272C342.69 229.535 360.055 246.916 360.055 268.353C360.055 289.791 342.69 307.171 321.272 307.171H195.977C174.559 307.171 157.194 289.791 157.194 268.353C157.194 246.916 174.559 229.535 195.977 229.535Z" stroke="#263238" stroke-miterlimit="10"/>
<path d="M195.461 304.675C215.503 304.675 231.75 288.413 231.75 268.353C231.75 248.294 215.503 232.032 195.461 232.032C175.42 232.032 159.173 248.294 159.173 268.353C159.173 288.413 175.42 304.675 195.461 304.675Z" stroke="#263238" stroke-miterlimit="10"/>
<path d="M289.001 268.257L305.97 251.273C307.841 249.4 307.841 246.364 305.97 244.479C304.099 242.607 301.065 242.607 299.182 244.479L282.213 261.464L265.244 244.479C263.374 242.607 260.34 242.607 258.457 244.479C256.586 246.352 256.586 249.388 258.457 251.273L275.426 268.257L258.457 285.242C256.586 287.114 256.586 290.151 258.457 292.035C259.392 292.972 260.615 293.44 261.851 293.44C263.074 293.44 264.309 292.972 265.244 292.035L282.213 275.051L299.182 292.035C300.118 292.972 301.341 293.44 302.576 293.44C303.799 293.44 305.035 292.972 305.97 292.035C307.841 290.163 307.841 287.126 305.97 285.242L289.001 268.257Z" fill="#263238"/>
<path d="M321.272 120.259H195.977C174.559 120.259 157.194 137.64 157.194 159.077C157.194 180.515 174.559 197.895 195.977 197.895H321.272C342.69 197.895 360.055 180.515 360.055 159.077C360.055 137.64 342.69 120.259 321.272 120.259Z" fill="#263238"/>
<path d="M321.787 202.672C345.842 202.672 365.343 183.154 365.343 159.077C365.343 135 345.842 115.482 321.787 115.482C297.732 115.482 278.231 135 278.231 159.077C278.231 183.154 297.732 202.672 321.787 202.672Z" fill="#5AE4A8" stroke="#263238" stroke-miterlimit="10"/>
<path d="M221.221 183.756C219.95 183.756 218.727 183.251 217.827 182.351L193.231 157.733C191.36 155.86 191.36 152.824 193.231 150.939C195.102 149.067 198.136 149.067 200.019 150.939L220.693 171.632L249.631 132.85C251.214 130.726 254.224 130.294 256.346 131.878C258.469 133.463 258.901 136.475 257.318 138.6L225.071 181.823C224.243 182.939 222.96 183.635 221.569 183.744C221.449 183.744 221.341 183.756 221.221 183.756Z" fill="#92E3A9"/>
<path d="M468.345 31.4361H516.326C519.503 31.4361 522.07 34.0168 522.07 37.1856V155.236C522.07 158.417 519.491 160.986 516.326 160.986H502.451" stroke="#263238" stroke-miterlimit="10"/>
<path d="M497.174 160.986H446.555C443.377 160.986 440.811 158.405 440.811 155.236V37.1856C440.811 34.0048 443.389 31.4361 446.555 31.4361H461.617" stroke="#263238" stroke-miterlimit="10"/>
<path d="M447.61 47.5323H492.269" stroke="#263238" stroke-miterlimit="10"/>
<path d="M473.549 64.4807H492.269" stroke="#263238" stroke-miterlimit="10"/>
<path d="M447.61 64.4807H468.573" stroke="#263238" stroke-miterlimit="10"/>
<path d="M514.479 61.2398H501.108C499.249 61.2398 497.75 62.7402 497.75 64.6007V65.573C497.75 67.4334 499.249 68.9338 501.108 68.9338H514.479C516.338 68.9338 517.837 67.4334 517.837 65.573V64.6007C517.837 62.7402 516.338 61.2398 514.479 61.2398Z" fill="#263238"/>
<path d="M518.365 65.0808C518.365 62.6922 516.434 60.7717 514.059 60.7717C511.673 60.7717 509.742 62.7042 509.742 65.0808C509.742 67.4695 511.673 69.39 514.059 69.39C516.434 69.39 518.365 67.4575 518.365 65.0808Z" fill="#5AE4A8" stroke="#263238" stroke-miterlimit="10"/>
<path d="M514.479 77.228H501.108C499.249 77.228 497.75 78.7284 497.75 80.5888V81.5611C497.75 83.4216 499.249 84.922 501.108 84.922H514.479C516.338 84.922 517.837 83.4216 517.837 81.5611V80.5888C517.837 78.7284 516.338 77.228 514.479 77.228Z" fill="#263238"/>
<path d="M518.365 81.069C518.365 78.6804 516.434 76.7599 514.059 76.7599C511.673 76.7599 509.742 78.6924 509.742 81.069C509.742 83.4576 511.673 85.3781 514.059 85.3781C516.434 85.3901 518.365 83.4576 518.365 81.069Z" fill="#5AE4A8" stroke="#263238" stroke-miterlimit="10"/>
<path d="M514.479 111.593H501.108C499.249 111.593 497.75 113.093 497.75 114.954V115.926C497.75 117.786 499.249 119.287 501.108 119.287H514.479C516.338 119.287 517.837 117.786 517.837 115.926V114.954C517.837 113.105 516.338 111.593 514.479 111.593Z" fill="#263238"/>
<path d="M518.365 115.434C518.365 113.045 516.434 111.125 514.059 111.125C511.673 111.125 509.742 113.057 509.742 115.434C509.742 117.81 511.673 119.743 514.059 119.743C516.434 119.755 518.365 117.822 518.365 115.434Z" fill="#5AE4A8" stroke="#263238" stroke-miterlimit="10"/>
<path d="M514.479 145.526H501.108C499.249 145.526 497.75 147.026 497.75 148.886V149.859C497.75 151.719 499.249 153.22 501.108 153.22H514.479C516.338 153.22 517.837 151.719 517.837 149.859V148.886C517.837 147.026 516.338 145.526 514.479 145.526Z" fill="#263238"/>
<path d="M518.365 149.367C518.365 146.978 516.434 145.057 514.059 145.057C511.673 145.057 509.742 146.99 509.742 149.367C509.742 151.755 511.673 153.676 514.059 153.676C516.434 153.688 518.365 151.755 518.365 149.367Z" fill="#5AE4A8" stroke="#263238" stroke-miterlimit="10"/>
<path d="M518.364 47.9044C518.364 48.9607 517.932 49.9209 517.237 50.6171C516.541 51.3133 515.582 51.7454 514.527 51.7454H504.021C505.413 51.0372 506.384 49.5848 506.384 47.9044C506.384 46.2239 505.425 44.7716 504.021 44.0634H514.527C516.637 44.0634 518.364 45.7918 518.364 47.9044Z" stroke="#263238" stroke-miterlimit="10"/>
<path d="M506.384 47.9044C506.384 49.5848 505.425 51.0372 504.022 51.7454C503.434 52.0575 502.763 52.2135 502.067 52.2135C499.681 52.2135 497.75 50.281 497.75 47.8924C497.75 45.5038 499.681 43.5713 502.067 43.5713C502.763 43.5713 503.434 43.7393 504.022 44.0394C505.413 44.7716 506.384 46.2239 506.384 47.9044Z" stroke="#263238" stroke-miterlimit="10"/>
<path d="M518.364 98.1374C518.364 99.1937 517.932 100.154 517.237 100.85C516.541 101.546 515.582 101.978 514.527 101.978H504.021C505.413 101.27 506.384 99.8178 506.384 98.1374C506.384 96.457 505.425 95.0046 504.021 94.2964H514.527C516.637 94.2964 518.364 96.0128 518.364 98.1374Z" stroke="#263238" stroke-miterlimit="10"/>
<path d="M506.384 98.1374C506.384 99.8178 505.425 101.27 504.022 101.978C503.434 102.29 502.763 102.446 502.067 102.446C499.681 102.446 497.75 100.514 497.75 98.1254C497.75 95.7368 499.681 93.8043 502.067 93.8043C502.763 93.8043 503.434 93.9723 504.022 94.2724C505.413 95.0046 506.384 96.4569 506.384 98.1374Z" stroke="#263238" stroke-miterlimit="10"/>
<path d="M518.364 131.854C518.364 132.91 517.932 133.871 517.237 134.567C516.541 135.263 515.582 135.695 514.527 135.695H504.021C505.413 134.987 506.384 133.535 506.384 131.854C506.384 130.174 505.425 128.721 504.021 128.013H514.527C516.637 128.001 518.364 129.73 518.364 131.854Z" stroke="#263238" stroke-miterlimit="10"/>
<path d="M506.384 131.854C506.384 133.535 505.425 134.987 504.022 135.695C503.434 136.007 502.763 136.163 502.067 136.163C499.681 136.163 497.75 134.231 497.75 131.842C497.75 129.453 499.681 127.521 502.067 127.521C502.763 127.521 503.434 127.689 504.022 127.989C505.413 128.721 506.384 130.174 506.384 131.854Z" stroke="#263238" stroke-miterlimit="10"/>
<path d="M447.61 81.441H492.269" stroke="#263238" stroke-miterlimit="10"/>
<path d="M447.61 98.4014H492.269" stroke="#263238" stroke-miterlimit="10"/>
<path d="M467.025 115.362H492.269" stroke="#263238" stroke-miterlimit="10"/>
<path d="M447.61 115.362H462.049" stroke="#263238" stroke-miterlimit="10"/>
<path d="M447.61 132.322H492.269" stroke="#263238" stroke-miterlimit="10"/>
<path d="M447.61 149.271H492.269" stroke="#263238" stroke-miterlimit="10"/>
<path d="M138.067 438.569V487.398C138.067 490.579 135.488 493.147 132.322 493.147H20.1593C16.9814 493.147 14.415 490.567 14.415 487.398V301.806C14.415 298.625 16.9934 296.057 20.1593 296.057H71.474" stroke="#263238" stroke-miterlimit="10"/>
<path d="M76.8828 296.045H132.311C135.489 296.045 138.055 298.625 138.055 301.794V430.479" stroke="#263238" stroke-miterlimit="10"/>
<path d="M39.2148 320.531H92.7121" stroke="#263238" stroke-miterlimit="10"/>
<path d="M24.7764 320.531H33.8305" stroke="#263238" stroke-miterlimit="10"/>
<path d="M24.7764 346.338H92.7122" stroke="#263238" stroke-miterlimit="10"/>
<path d="M125.775 341.392H106.899C103.673 341.392 101.059 344.009 101.059 347.238C101.059 350.467 103.673 353.083 106.899 353.083H125.763C128.988 353.083 131.603 350.467 131.603 347.238C131.615 344.009 129 341.392 125.775 341.392Z" fill="#263238"/>
<path d="M132.407 347.238C132.407 343.613 129.468 340.672 125.847 340.672C122.225 340.672 119.287 343.613 119.287 347.238C119.287 350.863 122.225 353.803 125.847 353.803C129.468 353.803 132.407 350.863 132.407 347.238Z" fill="#5AE4A8" stroke="#263238" stroke-miterlimit="10"/>
<path d="M125.775 365.723H106.899C103.673 365.723 101.059 368.339 101.059 371.568C101.059 374.797 103.673 377.414 106.899 377.414H125.763C128.988 377.414 131.603 374.797 131.603 371.568C131.615 368.339 129 365.723 125.775 365.723Z" fill="#263238"/>
<path d="M125.847 378.134C129.47 378.134 132.407 375.194 132.407 371.568C132.407 367.942 129.47 365.002 125.847 365.002C122.224 365.002 119.287 367.942 119.287 371.568C119.287 375.194 122.224 378.134 125.847 378.134Z" fill="#5AE4A8" stroke="#263238" stroke-miterlimit="10"/>
<path d="M125.775 418.008H106.899C103.673 418.008 101.059 420.625 101.059 423.854C101.059 427.082 103.673 429.699 106.899 429.699H125.763C128.988 429.699 131.603 427.082 131.603 423.854C131.615 420.625 129 418.008 125.775 418.008Z" fill="#263238"/>
<path d="M132.407 423.854C132.407 420.229 129.468 417.288 125.847 417.288C122.225 417.288 119.287 420.229 119.287 423.854C119.287 427.479 122.225 430.419 125.847 430.419C129.468 430.419 132.407 427.479 132.407 423.854Z" fill="#5AE4A8" stroke="#263238" stroke-miterlimit="10"/>
<path d="M125.775 469.621H106.899C103.673 469.621 101.059 472.238 101.059 475.467C101.059 478.696 103.673 481.312 106.899 481.312H125.763C128.988 481.312 131.603 478.696 131.603 475.467C131.615 472.238 129 469.621 125.775 469.621Z" fill="#263238"/>
<path d="M125.847 482.033C129.47 482.033 132.407 479.093 132.407 475.467C132.407 471.841 129.47 468.901 125.847 468.901C122.224 468.901 119.287 471.841 119.287 475.467C119.287 479.093 122.224 482.033 125.847 482.033Z" fill="#5AE4A8" stroke="#263238" stroke-miterlimit="10"/>
<path d="M132.407 321.119C132.407 322.727 131.747 324.192 130.692 325.248C129.636 326.304 128.173 326.965 126.566 326.965H110.593C112.715 325.884 114.178 323.676 114.178 321.119C114.178 318.562 112.715 316.354 110.593 315.274H126.566C129.792 315.274 132.407 317.89 132.407 321.119Z" stroke="#263238" stroke-miterlimit="10"/>
<path d="M114.178 321.119C114.178 323.676 112.715 325.884 110.592 326.965C109.705 327.433 108.686 327.685 107.618 327.685C103.997 327.685 101.059 324.744 101.059 321.119C101.059 317.494 103.997 314.553 107.618 314.553C108.686 314.553 109.705 314.805 110.592 315.274C112.715 316.354 114.178 318.562 114.178 321.119Z" stroke="#263238" stroke-miterlimit="10"/>
<path d="M132.407 397.531C132.407 399.139 131.747 400.604 130.692 401.66C129.636 402.716 128.173 403.376 126.566 403.376H110.593C112.715 402.296 114.178 400.087 114.178 397.531C114.178 394.974 112.715 392.766 110.593 391.685H126.566C129.792 391.685 132.407 394.302 132.407 397.531Z" stroke="#263238" stroke-miterlimit="10"/>
<path d="M114.178 397.531C114.178 400.087 112.715 402.296 110.592 403.376C109.705 403.844 108.686 404.096 107.618 404.096C103.997 404.096 101.059 401.156 101.059 397.531C101.059 393.906 103.997 390.965 107.618 390.965C108.686 390.965 109.705 391.217 110.592 391.685C112.715 392.766 114.178 394.974 114.178 397.531Z" stroke="#263238" stroke-miterlimit="10"/>
<path d="M132.407 448.82C132.407 450.428 131.747 451.893 130.692 452.949C129.636 454.005 128.173 454.666 126.566 454.666H110.593C112.715 453.585 114.178 451.377 114.178 448.82C114.178 446.263 112.715 444.055 110.593 442.975H126.566C129.792 442.975 132.407 445.591 132.407 448.82Z" stroke="#263238" stroke-miterlimit="10"/>
<path d="M114.178 448.82C114.178 451.377 112.715 453.585 110.592 454.666C109.705 455.134 108.686 455.386 107.618 455.386C103.997 455.386 101.059 452.445 101.059 448.82C101.059 445.195 103.997 442.254 107.618 442.254C108.686 442.254 109.705 442.506 110.592 442.975C112.715 444.055 114.178 446.263 114.178 448.82Z" stroke="#263238" stroke-miterlimit="10"/>
<path d="M74.1846 372.132H92.7125" stroke="#263238" stroke-miterlimit="10"/>
<path d="M24.7764 372.132H67.4567" stroke="#263238" stroke-miterlimit="10"/>
<path d="M24.7764 397.927H92.7122" stroke="#263238" stroke-miterlimit="10"/>
<path d="M24.7764 423.734H92.7122" stroke="#263238" stroke-miterlimit="10"/>
<path d="M64.6982 449.528H92.712" stroke="#263238" stroke-miterlimit="10"/>
<path d="M24.7764 449.528H59.2899" stroke="#263238" stroke-miterlimit="10"/>
<path d="M24.7764 475.335H92.7122" stroke="#263238" stroke-miterlimit="10"/>
<path d="M343.301 201.76C343.301 201.76 342.821 201.952 339.703 199.852C336.585 197.739 332.124 197.703 330.733 199.119C329.342 200.536 334.019 201.388 335.806 203.417C337.593 205.445 342.51 209.922 345.016 210.246C347.522 210.582 352.655 210.726 352.655 210.726C352.655 210.726 373.989 238.418 374.505 238.718C375.021 239.018 383.919 226.186 383.919 226.186L358.879 207.342C358.879 207.342 356.768 197.895 356.648 196.083C356.528 194.27 356.684 189.133 355.041 186.768C353.399 184.392 351.876 183.84 351.959 185.148C352.043 186.468 352.919 187.236 353.015 188.557C353.099 189.877 352.991 190.705 352.991 190.705C352.991 190.705 350.245 186.588 348.961 184.692C347.678 182.795 344.236 180.707 344.236 180.707C344.236 180.707 342.126 178.702 340.771 178.294C339.428 177.886 340.207 179.818 340.207 179.818C340.207 179.818 338.216 179.614 338.504 181.583C338.804 183.551 340.807 191.353 341.478 194.126C342.15 196.875 343.301 201.76 343.301 201.76Z" fill="white" stroke="#263238" stroke-miterlimit="10" stroke-linecap="round" stroke-linejoin="round"/>
<path d="M340.195 179.806C340.195 179.806 342.174 182.327 343.277 186.384C344.369 190.441 346.479 194.774 346.479 194.774" stroke="#263238" stroke-miterlimit="10" stroke-linecap="round" stroke-linejoin="round"/>
<path d="M344.213 180.695C344.213 180.695 348.842 188.161 349.274 189.781C349.717 191.401 350.689 193.658 350.689 193.658" stroke="#263238" stroke-miterlimit="10" stroke-linecap="round" stroke-linejoin="round"/>
<path d="M352.979 190.705L353.83 193.622" stroke="#263238" stroke-miterlimit="10" stroke-linecap="round" stroke-linejoin="round"/>
<path d="M368.7 215.108C368.7 215.108 362.093 205.697 359.586 206.717C357.092 207.738 351.971 214.507 352.571 217.028C353.17 219.561 357.536 220.977 357.536 220.977L368.7 215.108Z" fill="#92E3A9" stroke="#263238" stroke-miterlimit="10" stroke-linecap="round" stroke-linejoin="round"/>
<path d="M446.506 252.773C446.506 252.773 438.351 252.461 434.178 254.022C430.005 255.582 422.39 251.177 419.811 250.265C410.877 247.12 394.58 236.305 387.576 227.507C378.918 216.62 368.197 207.426 361.229 212.179C354.274 216.92 354.154 221.637 354.694 223.318C355.233 224.998 357.92 235.465 381.568 260.935C393.297 273.575 402.83 278.364 411.693 282.925C420.555 287.474 430.269 291.975 430.269 291.975L446.506 252.773Z" fill="#5AE4A8" stroke="#263238" stroke-miterlimit="10" stroke-linecap="round" stroke-linejoin="round"/>
<path d="M433.807 194.93C433.807 194.93 423.529 201.46 422.534 204.821C421.551 208.182 420.951 211.351 419.368 213.127C417.785 214.904 412.844 215.504 412.449 217.088C412.053 218.673 415.015 223.222 415.015 223.222C415.015 223.222 417.185 231.336 417.581 233.904C417.977 236.473 420.543 240.434 422.522 240.434C424.501 240.434 429.633 239.246 429.633 239.246C429.633 239.246 431.012 249.929 430.821 253.494C430.629 257.058 430.233 257.647 432.2 257.647C434.178 257.647 441.889 252.101 442.681 251.513C443.472 250.925 445.451 236.077 447.034 230.544C448.617 224.998 447.826 207.99 444.468 202.444C441.122 196.911 436.577 193.346 433.807 194.93Z" fill="white" stroke="#263238" stroke-miterlimit="10" stroke-linecap="round" stroke-linejoin="round"/>
<path d="M417.977 224.11C417.977 224.11 421.754 225.058 424.752 222.213" stroke="#263238" stroke-miterlimit="10" stroke-linecap="round" stroke-linejoin="round"/>
<path d="M425.868 211.687C425.568 212.791 424.933 213.583 424.453 213.451C423.985 213.319 423.841 212.323 424.153 211.207C424.453 210.102 425.088 209.31 425.568 209.442C426.036 209.574 426.18 210.582 425.868 211.687Z" fill="#263238"/>
<path d="M424.92 204.821C424.92 204.821 427.69 202.048 429.669 206.009" stroke="#263238" stroke-miterlimit="10" stroke-linecap="round" stroke-linejoin="round"/>
<path d="M419.296 357.656L421.778 370.692C421.778 370.692 419.727 386.476 425.208 412.199C428.626 428.247 433.77 434.92 434.286 436.469C434.802 438.017 437.8 464.172 438.315 472.406C438.831 480.64 441.913 494.276 441.913 497.109C441.913 499.941 440.366 505.343 438.831 507.395C437.284 509.448 430.353 516.145 428.29 517.166C426.239 518.198 423.409 519.998 426.239 521.019C429.069 522.051 434.202 522.567 438.579 521.535C442.944 520.503 447.573 517.67 450.919 515.365C454.265 513.049 458.114 513.049 458.882 509.964C459.649 506.879 455.032 499.677 455.032 492.979C455.032 486.282 457.179 457.042 456.915 444.703C456.663 432.352 453.318 429.015 453.318 429.015L454.769 416.832C454.769 416.832 464.027 430.719 466.593 434.584C469.159 438.437 473.536 453.105 480.984 462.888C488.443 472.658 496.406 496.076 496.657 496.844C496.909 497.613 494.091 514.081 492.808 517.43C491.525 520.779 492.04 525.4 500.267 525.4C508.494 525.4 511.828 521.283 510.808 515.365C509.789 509.448 508.242 505.079 508.242 500.445C508.242 495.812 503.877 473.174 502.845 467.257C501.814 461.339 499.763 442.818 496.933 435.353C494.103 427.887 488.97 421.465 485.876 417.6C482.794 413.747 480.48 399.331 479.712 393.162C478.945 386.992 477.398 368.207 475.347 358.173C473.297 348.138 472.517 347.37 472.517 347.37L471.234 344.537C471.234 344.537 453.761 349.938 443.472 350.203C433.195 350.455 418.792 351.487 418.792 351.487L419.296 357.656Z" fill="#263238" stroke="#263238" stroke-miterlimit="10" stroke-linecap="round" stroke-linejoin="round"/>
<path d="M450.908 515.365C454.253 513.049 458.103 513.049 458.87 509.964C459.638 506.879 455.021 499.677 455.021 492.979C455.021 491.779 455.105 490.063 455.237 488.01C448.785 490.303 442.945 488.85 440.522 488.022C441.266 492.259 441.913 495.8 441.913 497.085C441.913 499.917 440.366 505.319 438.831 507.371C437.284 509.424 430.353 516.121 428.29 517.142C426.24 518.174 423.409 519.974 426.24 520.995C429.07 522.027 434.202 522.543 438.58 521.511C442.945 520.515 447.562 517.682 450.908 515.365Z" fill="white" stroke="#263238" stroke-miterlimit="10" stroke-linecap="round" stroke-linejoin="round"/>
<path d="M493.181 487.374C495.219 492.607 496.562 496.532 496.67 496.844C496.922 497.613 494.104 514.081 492.821 517.43C491.538 520.779 492.053 525.4 500.28 525.4C508.507 525.4 511.84 521.283 510.821 515.365C509.802 509.448 508.255 505.079 508.255 500.445C508.255 498.033 507.068 490.699 505.772 483.401C502.439 486.174 497.774 487.194 493.181 487.374Z" fill="white" stroke="#263238" stroke-miterlimit="10" stroke-linecap="round" stroke-linejoin="round"/>
<path d="M454.77 416.832C454.77 416.832 450.141 408.862 446.543 398.563C442.945 388.276 442.178 385.696 442.178 385.696L432.416 376.693" stroke="white" stroke-miterlimit="10" stroke-linecap="round" stroke-linejoin="round"/>
<path d="M458.871 356.888C458.871 356.888 457.324 365.122 469.664 366.659" stroke="white" stroke-miterlimit="10" stroke-linecap="round" stroke-linejoin="round"/>
<path d="M438.568 521.535C442.933 520.503 447.562 517.67 450.908 515.365C454.254 513.049 458.103 513.049 458.871 509.964C459.314 508.187 457.983 505.055 456.76 501.454C453.114 503.698 448.593 505.079 448.593 505.079C448.593 505.079 445.763 501.226 443.713 501.226C442.885 501.226 441.986 501.43 441.182 501.682C440.595 503.938 439.707 506.219 438.82 507.395C437.273 509.448 430.341 516.145 428.279 517.166C426.228 518.198 423.398 519.998 426.228 521.019C429.058 522.051 434.203 522.567 438.568 521.535Z" fill="white" stroke="#263238" stroke-miterlimit="10" stroke-linecap="round" stroke-linejoin="round"/>
<path d="M510.796 515.365C509.969 510.6 508.818 506.843 508.398 503.134L507.199 506.099C507.199 506.099 505.4 500.433 500.771 500.433C497.881 500.433 496.298 503.038 495.518 504.995C494.655 509.928 493.504 515.605 492.808 517.418C491.525 520.767 492.041 525.388 500.267 525.388C508.482 525.4 511.828 521.283 510.796 515.365Z" fill="white" stroke="#263238" stroke-miterlimit="10" stroke-linecap="round" stroke-linejoin="round"/>
<path d="M416.945 356.348C416.945 356.348 416.945 362.758 419.08 363.826C421.215 364.894 432.679 365.158 448.941 363.298C465.202 361.425 475.323 358.197 475.323 358.197L472.493 347.394L416.945 356.348Z" fill="#5AE4A8" stroke="#263238" stroke-miterlimit="10" stroke-linecap="round" stroke-linejoin="round"/>
<path d="M445.079 244.803C445.079 244.803 424.513 255.438 414.919 269.158C405.325 282.877 409.438 308.948 410.122 323.352C410.806 337.755 410.806 348.054 409.438 352.507C408.071 356.972 414.583 357.993 420.064 359.709C425.544 361.425 433.771 355.592 438.232 356.624C442.693 357.656 452.287 357.993 456.052 356.972C459.818 355.94 465.646 351.823 466.677 351.823C467.709 351.823 472.841 351.823 472.841 351.823C472.841 351.823 474.556 329.521 467.697 306.199C460.837 282.877 458.439 257.142 453.99 249.941C449.54 242.751 445.079 244.803 445.079 244.803Z" fill="#5AE4A8" stroke="#263238" stroke-miterlimit="10" stroke-linecap="round" stroke-linejoin="round"/>
<path d="M474.028 365.146C474.028 365.146 473.476 374.221 472.553 378.11C471.63 381.999 470.706 382.551 472.925 382.551C475.143 382.551 475.887 376.261 475.887 376.261L478.477 378.674C478.477 378.674 482.914 388.12 484.581 388.853C486.248 389.597 486.992 388.853 486.056 386.44C485.121 384.027 483.466 379.034 483.466 379.034L484.761 379.778C484.761 379.778 489.39 387.556 490.493 388.3C491.609 389.045 492.532 389.777 492.712 387.928C492.892 386.08 488.275 379.406 488.275 379.406L494.559 386.632C494.559 386.632 495.854 388.108 496.405 386.632C496.957 385.156 492.7 379.046 492.7 379.046L491.956 377.75C491.956 377.75 494.918 379.97 495.47 380.162C496.022 380.342 497.509 381.087 498.24 380.714C498.972 380.342 497.497 378.494 496.202 377.005C494.906 375.529 491.573 372.372 490.277 370.152C488.982 367.931 487.135 364.786 487.135 364.786L474.028 365.146Z" fill="white" stroke="#263238" stroke-miterlimit="10" stroke-linecap="round" stroke-linejoin="round"/>
<path d="M469.22 354.776C469.22 354.776 470.143 364.954 471.258 365.891C472.374 366.815 488.467 365.711 489.199 365.711C489.942 365.711 489.199 352.567 489.199 352.567C489.199 352.567 477.362 351.643 475.504 352.015C473.657 352.363 469.22 354.776 469.22 354.776Z" fill="#5AE4A8" stroke="#263238" stroke-miterlimit="10" stroke-linecap="round" stroke-linejoin="round"/>
<path d="M442.681 266.757C442.681 266.757 456.052 316.834 458.103 329.869C460.153 342.905 460.501 353.539 464.962 355.592C469.423 357.644 482.435 353.876 482.435 353.876C482.435 353.876 487.915 356.624 492.029 354.56C496.142 352.507 496.49 347.358 494.427 338.776C492.376 330.205 473.86 283.201 468.728 274.979C463.583 266.745 454.673 249.256 452.275 247.876C449.876 246.508 440.618 245.127 438.567 251.645" fill="#5AE4A8"/>
<path d="M442.681 266.757C442.681 266.757 456.052 316.834 458.103 329.869C460.153 342.905 460.501 353.539 464.962 355.592C469.423 357.644 482.435 353.876 482.435 353.876C482.435 353.876 487.915 356.624 492.029 354.56C496.142 352.507 496.49 347.358 494.427 338.776C492.376 330.205 473.86 283.201 468.728 274.979C463.583 266.745 454.673 249.256 452.275 247.876C449.876 246.508 440.618 245.127 438.567 251.645" stroke="#263238" stroke-miterlimit="10" stroke-linecap="round" stroke-linejoin="round"/>
<path d="M430.089 198.759L440.162 223.582C440.162 223.582 437.752 235.633 432.463 241.899C427.163 248.164 422.354 253.95 423.313 261.656C424.273 269.362 427.643 266.469 427.643 266.469C427.643 266.469 446.135 241.19 457.683 253.914L468.728 274.979C468.728 274.979 481.571 276.72 482.531 262.736C483.49 248.764 479.353 237.649 474.172 222.922C471.102 214.171 471.366 203.333 464.627 194.654C459.566 188.149 445.391 182.987 435.545 186.312C430.497 188.041 428.074 193.826 430.089 198.759Z" fill="#263238" stroke="#263238" stroke-miterlimit="10" stroke-linecap="round" stroke-linejoin="round"/>
<path d="M464.627 194.678C464.627 194.678 467.757 190.849 473.105 192.278C478.454 193.706 483.443 208.338 484.162 217.268C484.87 226.198 484.522 232.26 486.657 232.62C488.791 232.98 490.938 231.552 490.938 231.552C490.938 231.552 492.725 236.197 486.657 239.054C480.589 241.911 469.892 238.346 469.184 227.279C468.476 216.188 464.627 194.678 464.627 194.678Z" fill="#263238" stroke="#263238" stroke-miterlimit="10" stroke-linecap="round" stroke-linejoin="round"/>
</g>
<defs>
<clipPath id="clip0_100_98">
<rect width="542" height="526" fill="white"/>
</clipPath>
</defs>
</svg>
