<svg width="23" height="17" viewBox="0 0 23 17" fill="none" xmlns="http://www.w3.org/2000/svg">
<path d="M6.98375 14.7467C6.74536 14.7469 6.51505 14.6603 6.33594 14.5029L0.335939 9.25294C0.230413 9.16054 0.145848 9.04667 0.0879103 8.91894C0.0299727 8.79121 0 8.65257 0 8.51231C0 8.37205 0.0299727 8.23342 0.0879103 8.10568C0.145848 7.97795 0.230413 7.86408 0.335939 7.77169L6.33594 2.52169C6.53243 2.34975 6.78917 2.26291 7.04968 2.28027C7.3102 2.29764 7.55315 2.41778 7.72508 2.61426C7.89702 2.81075 7.98385 3.06749 7.96649 3.32801C7.94913 3.58852 7.82899 3.83147 7.6325 4.0034L2.4786 8.51231L7.63203 13.0212C7.78286 13.1531 7.88987 13.3278 7.93875 13.5221C7.98764 13.7164 7.97608 13.921 7.90562 14.1085C7.83515 14.2961 7.70914 14.4576 7.54442 14.5717C7.37969 14.6857 7.1841 14.7468 6.98375 14.7467ZM15.9838 14.7467C15.7834 14.7469 15.5877 14.6859 15.4229 14.5719C15.2581 14.4579 15.132 14.2963 15.0615 14.1087C14.991 13.9212 14.9794 13.7166 15.0283 13.5222C15.0771 13.3279 15.1841 13.1531 15.335 13.0212L20.4889 8.51231L15.3355 4.0034C15.139 3.83147 15.0188 3.58852 15.0015 3.32801C14.9841 3.06749 15.071 2.81075 15.2429 2.61426C15.4148 2.41778 15.6578 2.29764 15.9183 2.28027C16.1788 2.26291 16.4355 2.34975 16.632 2.52169L22.632 7.77169C22.7376 7.86408 22.8221 7.97795 22.8801 8.10568C22.938 8.23342 22.968 8.37205 22.968 8.51231C22.968 8.65257 22.938 8.79121 22.8801 8.91894C22.8221 9.04667 22.7376 9.16054 22.632 9.25294L16.632 14.5029C16.4528 14.6604 16.2223 14.7471 15.9838 14.7467ZM9.23375 16.9967C9.08046 16.9967 8.92929 16.9608 8.79229 16.892C8.65529 16.8233 8.53625 16.7234 8.44465 16.6005C8.35305 16.4776 8.29142 16.335 8.26468 16.184C8.23794 16.0331 8.24683 15.878 8.29063 15.7311L12.7906 0.731061C12.8245 0.603773 12.8836 0.484584 12.9644 0.380553C13.0452 0.276522 13.1461 0.189765 13.261 0.125423C13.376 0.0610814 13.5026 0.0204629 13.6336 0.00597347C13.7645 -0.00851591 13.897 0.00341886 14.0232 0.0410707C14.1495 0.0787226 14.2668 0.141325 14.3684 0.225171C14.47 0.309017 14.5538 0.4124 14.6147 0.529195C14.6756 0.64599 14.7124 0.773822 14.723 0.905118C14.7336 1.03641 14.7178 1.1685 14.6764 1.29356L10.1764 16.2936C10.1159 16.4966 9.99145 16.6747 9.82162 16.8014C9.65179 16.928 9.44562 16.9965 9.23375 16.9967Z" fill="#1B2E35"/>
</svg>
