<svg width="50" height="50" viewBox="0 0 50 50" fill="none" xmlns="http://www.w3.org/2000/svg">
<path d="M46.875 26.5625H43.2285C42.7087 27.6448 42.1131 28.689 41.4463 29.6875H46.875V26.5625ZM3.125 23.4375V26.5625H6.77148C6.2889 25.5532 5.88408 24.5085 5.56055 23.4375H3.125Z" fill="#1B2E35"/>
<path d="M29.6875 25.3691L24.6357 35.4727L19.9482 19.8477L16.5908 26.5625H6.77148C7.74805 28.6055 9.06641 30.6064 10.7393 32.5859C14.6572 37.2207 19.9434 40.374 24.1182 43.1641L24.9971 43.75L25.876 43.1641C30.0537 40.374 35.3398 37.2207 39.2549 32.5859C40.0405 31.6627 40.7722 30.695 41.4463 29.6875H31.8467L29.6875 25.3691Z" fill="#1B2E35"/>
<path d="M20.6772 11.4023L25.3647 27.0273L29.688 18.3809L33.7788 26.5625H43.229C44.6353 23.6619 45.3488 20.4743 45.313 17.251C45.2514 11.1855 40.3852 6.25 34.4653 6.25C29.7671 6.25 26.643 8.98437 25.0005 10.958C23.3579 8.98437 20.2339 6.25 15.5356 6.25C9.6157 6.25 4.74949 11.1855 4.68797 17.251C4.66319 19.3455 4.95758 21.4316 5.56101 23.4375H14.6596L20.6772 11.4023Z" fill="#1B2E35"/>
</svg>
