<svg width="42" height="42" viewBox="0 0 42 42" fill="none" xmlns="http://www.w3.org/2000/svg">
<path d="M41.3097 10.3523C41.2133 10.1542 41.0711 9.98189 40.8947 9.84986C40.7183 9.71784 40.5129 9.6299 40.2956 9.59338C40.0783 9.55686 39.8554 9.57281 39.6455 9.63991C39.4357 9.707 39.2449 9.8233 39.0891 9.9791L34.8932 14.175C34.722 14.3438 34.4913 14.4385 34.2509 14.4385C34.0105 14.4385 33.7797 14.3438 33.6086 14.175L31.7645 12.3309C31.5958 12.1595 31.5013 11.9287 31.5013 11.6882C31.5013 11.4477 31.5958 11.2169 31.7645 11.0455L35.9382 6.87094C36.0979 6.71125 36.2161 6.51487 36.2823 6.29897C36.3486 6.08307 36.3609 5.85422 36.3183 5.63245C36.2756 5.41067 36.1793 5.20273 36.0376 5.02681C35.896 4.85088 35.7135 4.71233 35.5059 4.62328C32.2485 3.22875 28.1986 4.01215 25.6622 6.53379C23.4629 8.71664 22.805 12.1119 23.8575 15.8607C23.9029 16.0216 23.9027 16.192 23.8569 16.3527C23.8111 16.5135 23.7216 16.6584 23.5983 16.7713L9.41509 29.9496C8.94521 30.3723 8.56632 30.8863 8.30149 31.4602C8.03666 32.034 7.89144 32.6558 7.87468 33.2876C7.85793 33.9195 7.96998 34.5481 8.20401 35.1352C8.43804 35.7223 8.78916 36.2556 9.23596 36.7026C9.68277 37.1497 10.2159 37.501 10.8029 37.7354C11.3899 37.9697 12.0185 38.0821 12.6503 38.0656C13.2821 38.0492 13.904 37.9043 14.478 37.6397C15.052 37.3752 15.5661 36.9965 15.9891 36.5269L29.2855 22.3191C29.3968 22.1985 29.5389 22.1106 29.6964 22.0648C29.854 22.019 30.0211 22.017 30.1797 22.059C33.8711 23.0434 37.2343 22.3871 39.4024 20.2543C40.6493 19.0239 41.5197 17.2873 41.8543 15.3563C42.1685 13.5352 41.97 11.7108 41.3097 10.3523Z" fill="#1B2E35"/>
<path d="M35.8747 31.0414C34.7311 30.0907 32.2883 27.8914 29.7986 25.6093L24.3788 31.4016C26.6954 33.8625 28.7921 36.1471 29.7108 37.2159L29.7166 37.2225C29.9373 37.4751 30.2073 37.6799 30.51 37.8244C30.8127 37.9688 31.1418 38.0499 31.477 38.0625H31.5672C32.2117 38.0606 32.8299 37.8068 33.2899 37.3554L33.2956 37.3497L36.0379 34.6123C36.2761 34.3746 36.4621 34.0898 36.5838 33.7761C36.7056 33.4624 36.7606 33.1267 36.7451 32.7906C36.7297 32.4544 36.6442 32.1252 36.4942 31.824C36.3441 31.5228 36.1328 31.2563 35.8738 31.0414H35.8747ZM9.72392 17.5998C9.72526 17.2885 9.64006 16.9829 9.47783 16.7172C9.4551 16.6812 9.44296 16.6396 9.44279 16.5971C9.44261 16.5546 9.45441 16.5129 9.47684 16.4767C9.49927 16.4406 9.53141 16.4115 9.5696 16.3928C9.60778 16.3741 9.65046 16.3666 9.69275 16.371H9.69767C9.76658 16.3784 10.1349 16.4317 10.6574 16.7491C11.0454 16.9846 12.1529 17.7401 14.0806 19.6645C14.0601 20.32 14.2696 20.9619 14.6729 21.4791L20.1058 16.43C19.6246 15.9744 18.9959 15.7066 18.3339 15.6754C18.3277 15.6686 18.322 15.6615 18.3167 15.654L18.2634 15.5974L16.2503 12.8215C16.0265 12.5176 15.8798 12.164 15.8226 11.791C15.7655 11.4179 15.7996 11.0366 15.9222 10.6797C16.1068 10.148 16.4427 9.68188 16.8885 9.33844C17.3553 8.97668 18.4086 8.5411 19.3035 8.46727C19.7204 8.4328 20.1401 8.45877 20.5496 8.54438C20.7458 8.59171 20.9391 8.65004 21.1287 8.7191C21.1862 8.74057 21.2451 8.75785 21.3051 8.77078C21.5655 8.82847 21.8373 8.80546 22.0842 8.70482C22.3312 8.60418 22.5417 8.43069 22.6876 8.20745C22.8335 7.98421 22.908 7.72181 22.901 7.45521C22.8941 7.1886 22.8061 6.93043 22.6488 6.71508C22.6274 6.68637 22.5405 6.56824 22.4117 6.4091C22.1714 6.10603 21.9081 5.82191 21.6242 5.55926C20.9556 4.95551 19.2231 3.9375 16.9484 3.9375C15.6467 3.93655 14.357 4.18724 13.1504 4.67578C10.0028 5.94317 7.94384 7.67649 6.9972 8.59606L6.98982 8.60344C6.35285 9.23239 5.76309 9.90742 5.22533 10.623C5.02203 10.9097 4.88987 11.2407 4.83978 11.5886C4.81638 11.7366 4.73856 11.8705 4.62157 11.9641C4.50458 12.0577 4.35685 12.1043 4.20732 12.0947H4.11791C3.67071 12.0917 3.24049 12.2657 2.92107 12.5787L0.50525 14.9338L0.479 14.96C0.175113 15.2758 0.00372167 15.6959 5.99006e-05 16.1341C-0.00360187 16.5723 0.160744 16.9952 0.459312 17.316C0.474898 17.3324 0.489664 17.348 0.50607 17.3636L4.40255 21.1641C4.72359 21.4786 5.15486 21.6552 5.60431 21.6563C6.0515 21.6592 6.48173 21.4853 6.80115 21.1723L9.21779 18.8106C9.37897 18.653 9.50683 18.4646 9.59377 18.2566C9.68072 18.0486 9.72498 17.8252 9.72392 17.5998Z" fill="#1B2E35"/>
</svg>
