<svg width="48" height="48" viewBox="0 0 48 48" fill="none" xmlns="http://www.w3.org/2000/svg">
<path d="M45 4.5H3C2.60218 4.5 2.22064 4.65804 1.93934 4.93934C1.65804 5.22064 1.5 5.60218 1.5 6V36C1.5 36.3978 1.65804 36.7794 1.93934 37.0607C2.22064 37.342 2.60218 37.5 3 37.5H18.75V40.5H12V43.5H36V40.5H29.25V37.5H45C45.3978 37.5 45.7794 37.342 46.0607 37.0607C46.342 36.7794 46.5 36.3978 46.5 36V6C46.5 5.60218 46.342 5.22064 46.0607 4.93934C45.7794 4.65804 45.3978 4.5 45 4.5ZM43.125 7.875V28.125H4.875V7.875H43.125ZM22.5122 33.195C22.4716 32.8843 22.5292 32.5688 22.6771 32.2925C22.825 32.0163 23.0556 31.7933 23.3367 31.6549C23.6177 31.5164 23.9351 31.4695 24.2442 31.5206C24.5533 31.5717 24.8386 31.7183 25.0602 31.9398C25.2817 32.1614 25.4283 32.4467 25.4794 32.7558C25.5305 33.0649 25.4836 33.3823 25.3451 33.6633C25.2067 33.9444 24.9837 34.175 24.7075 34.3229C24.4312 34.4708 24.1157 34.5284 23.805 34.4878C23.4772 34.4449 23.1727 34.2949 22.9389 34.0611C22.7051 33.8273 22.5551 33.5228 22.5122 33.195Z" fill="#1B2E35"/>
</svg>
