<svg width="48" height="48" viewBox="0 0 48 48" fill="none" xmlns="http://www.w3.org/2000/svg">
<path d="M27.5624 21C25.8758 21 24.2451 20.247 22.9687 18.8803C21.7275 17.5473 20.9696 15.7697 20.8358 13.8764C20.6931 11.8568 21.3092 9.99961 22.57 8.64609C23.8308 7.29258 25.5937 6.5625 27.5624 6.5625C29.5172 6.5625 31.285 7.3057 32.5417 8.65594C33.8107 10.0193 34.4284 11.8732 34.2857 13.8756C34.1487 15.7713 33.3915 17.5481 32.1529 18.8795C30.8798 20.247 29.2498 21 27.5624 21ZM38.3766 35.4375H16.749C16.4013 35.4394 16.0578 35.3614 15.7449 35.2097C15.4321 35.0579 15.1582 34.8364 14.9444 34.5622C14.7175 34.265 14.5609 33.9202 14.4862 33.5539C14.4115 33.1875 14.4206 32.809 14.5129 32.4466C15.2036 29.6732 16.9148 27.373 19.461 25.7955C21.721 24.3961 24.5978 23.625 27.5624 23.625C30.5853 23.625 33.3866 24.3633 35.6597 25.7619C38.2117 27.3312 39.9253 29.6445 40.6128 32.4516C40.7039 32.8142 40.712 33.1927 40.6365 33.5589C40.5609 33.925 40.4036 34.2694 40.1764 34.5663C39.9627 34.8393 39.6895 35.0597 39.3775 35.2107C39.0656 35.3617 38.7232 35.4393 38.3766 35.4375ZM12.0585 21.3281C9.17182 21.3281 6.63377 18.6441 6.39834 15.3456C6.28186 13.6557 6.8085 12.093 7.87491 10.9471C8.92983 9.81258 10.4179 9.1875 12.0585 9.1875C13.6991 9.1875 15.1757 9.81586 16.2364 10.9569C17.311 12.1119 17.836 13.6713 17.7129 15.3472C17.4775 18.6449 14.9403 21.3281 12.0585 21.3281ZM17.4447 23.908C16.0017 23.2025 14.129 22.8498 12.0593 22.8498C9.64268 22.8498 7.29577 23.4798 5.45006 24.6233C3.35745 25.9219 1.94979 27.8127 1.38131 30.0956C1.29812 30.424 1.29025 30.7669 1.3583 31.0988C1.42634 31.4306 1.56853 31.7427 1.77424 32.0119C1.96943 32.2624 2.2195 32.4649 2.5052 32.6037C2.7909 32.7425 3.10462 32.8139 3.42225 32.8125H12.5277C12.6814 32.8125 12.8302 32.7585 12.9482 32.66C13.0662 32.5615 13.1458 32.4248 13.1733 32.2736C13.1823 32.2219 13.1938 32.1702 13.2069 32.1193C13.9026 29.3253 15.5325 26.9645 17.941 25.2435C18.0295 25.1796 18.1008 25.0947 18.1483 24.9963C18.1957 24.898 18.2179 24.7893 18.2127 24.6803C18.2076 24.5712 18.1753 24.4651 18.1189 24.3717C18.0624 24.2782 17.9835 24.2003 17.8893 24.1451C17.7605 24.0696 17.6128 23.99 17.4447 23.908Z" fill="#1B2E35"/>
</svg>
