<svg width="44" height="44" viewBox="0 0 44 44" fill="none" xmlns="http://www.w3.org/2000/svg">
<path d="M31.625 9.625H12.375C5.55156 9.625 0 15.1766 0 22C0 28.8234 5.55156 34.375 12.375 34.375H31.625C38.4484 34.375 44 28.8234 44 22C44 15.1766 38.4484 9.625 31.625 9.625ZM31.625 31.625C29.7214 31.625 27.8605 31.0605 26.2776 30.0029C24.6948 28.9453 23.4612 27.4421 22.7327 25.6833C22.0042 23.9246 21.8136 21.9893 22.1849 20.1223C22.5563 18.2552 23.473 16.5402 24.8191 15.1941C26.1652 13.848 27.8802 12.9313 29.7473 12.5599C31.6143 12.1886 33.5496 12.3792 35.3083 13.1077C37.0671 13.8362 38.5703 15.0698 39.6279 16.6526C40.6855 18.2355 41.25 20.0964 41.25 22C41.2473 24.5519 40.2323 26.9984 38.4279 28.8029C36.6234 30.6073 34.1769 31.6223 31.625 31.625Z" fill="#1B2E35"/>
</svg>
