<svg width="20" height="23" viewBox="0 0 20 23" fill="none" xmlns="http://www.w3.org/2000/svg">
<path d="M3 4L4.04167 20.3636C4.09115 21.3091 4.79167 22 5.70833 22H15.2917C16.212 22 16.8995 21.3091 16.9583 20.3636L18 4" stroke="black" stroke-linecap="round" stroke-linejoin="round"/>
<path d="M1 4H19Z" fill="black"/>
<path d="M1 4H19" stroke="black" stroke-miterlimit="10" stroke-linecap="round"/>
<path d="M7.38889 4.27273V2.22728C7.38844 2.06598 7.41831 1.90618 7.47678 1.75706C7.53525 1.60795 7.62117 1.47247 7.7296 1.35841C7.83802 1.24435 7.96681 1.15397 8.10856 1.09246C8.25031 1.03095 8.40222 0.999533 8.55556 1.00001H12.4444C12.5978 0.999533 12.7497 1.03095 12.8914 1.09246C13.0332 1.15397 13.162 1.24435 13.2704 1.35841C13.3788 1.47247 13.4647 1.60795 13.5232 1.75706C13.5817 1.90618 13.6116 2.06598 13.6111 2.22728V4.27273M10.5 7.54546V19M7 7.54546L7.38889 19M14 7.54546L13.6111 19" stroke="black" stroke-linecap="round" stroke-linejoin="round"/>
</svg>
