<svg width="40" height="40" viewBox="0 0 40 40" fill="none" xmlns="http://www.w3.org/2000/svg">
<rect width="40" height="40" rx="20" fill="#1B2E35"/>
<path d="M24.6929 9.22348C23.5013 7.98134 21.837 7.2973 20 7.2973C18.1532 7.2973 16.4834 7.9772 15.2973 9.21166C14.0983 10.4597 13.5142 12.1559 13.6513 13.9875C13.9232 17.601 16.7712 20.5405 20 20.5405C23.2288 20.5405 26.0719 17.6016 26.348 13.9887C26.487 12.1737 25.8992 10.481 24.6929 9.22348ZM30.777 33.7838H9.22296C8.94084 33.7873 8.66145 33.7301 8.40511 33.6163C8.14878 33.5025 7.92194 33.3349 7.74112 33.1258C7.34311 32.6664 7.18268 32.0391 7.30147 31.4047C7.81828 28.6367 9.43116 26.3114 11.9662 24.6791C14.2184 23.23 17.0712 22.4324 20 22.4324C22.9288 22.4324 25.7816 23.2306 28.0338 24.6791C30.5688 26.3108 32.1817 28.6361 32.6985 31.4041C32.8173 32.0385 32.6569 32.6658 32.2589 33.1252C32.0781 33.3344 31.8513 33.5021 31.5949 33.616C31.3386 33.7299 31.0592 33.7873 30.777 33.7838Z" fill="#F5F5F7"/>
</svg>
