<svg width="16" height="16" viewBox="0 0 16 16" fill="none" xmlns="http://www.w3.org/2000/svg">
<path d="M8.43665 2.07092C5.07659 2.07092 2.3429 4.80461 2.3429 8.16467C2.3429 11.5247 5.07659 14.2584 8.43665 14.2584C11.7967 14.2584 14.5304 11.5247 14.5304 8.16467C14.5304 4.80461 11.7967 2.07092 8.43665 2.07092ZM10.643 9.70833C10.6884 9.75142 10.7246 9.80316 10.7497 9.86049C10.7747 9.91783 10.788 9.9796 10.7888 10.0422C10.7896 10.1047 10.7779 10.1668 10.7543 10.2248C10.7308 10.2827 10.6958 10.3354 10.6516 10.3796C10.6073 10.4239 10.5547 10.4588 10.4967 10.4824C10.4388 10.5059 10.3767 10.5177 10.3141 10.5169C10.2516 10.5161 10.1898 10.5028 10.1325 10.4777C10.0751 10.4527 10.0234 10.4164 9.9803 10.371L8.43665 8.82766L6.89299 10.371C6.80437 10.4552 6.68636 10.5015 6.56413 10.4999C6.4419 10.4983 6.32511 10.4491 6.23868 10.3626C6.15224 10.2762 6.10298 10.1594 6.10142 10.0372C6.09986 9.91496 6.1461 9.79695 6.2303 9.70833L7.77366 8.16467L6.2303 6.62102C6.1461 6.5324 6.09986 6.41439 6.10142 6.29216C6.10298 6.16993 6.15224 6.05314 6.23868 5.9667C6.32511 5.88026 6.4419 5.83101 6.56413 5.82945C6.68636 5.82788 6.80437 5.87413 6.89299 5.95833L8.43665 7.50168L9.9803 5.95833C10.0689 5.87413 10.1869 5.82788 10.3092 5.82945C10.4314 5.83101 10.5482 5.88026 10.6346 5.9667C10.7211 6.05314 10.7703 6.16993 10.7719 6.29216C10.7734 6.41439 10.7272 6.5324 10.643 6.62102L9.09963 8.16467L10.643 9.70833Z" fill="black"/>
</svg>
