<svg width="165" height="57" viewBox="0 0 165 57" fill="none" xmlns="http://www.w3.org/2000/svg">
<g clip-path="url(#clip0_3_96)">
<path d="M1.54004 42.78H7.22004V43.41H2.26004V47.56H6.44004V48.19H2.26004V53.2H1.54004V42.78Z" fill="#1D1D1B"/>
<path d="M8.82007 49.42C8.82007 46.94 10.4301 45.42 12.1301 45.42C13.9301 45.42 15.0401 46.7 15.0401 48.93C15.0401 49.12 15.0301 49.31 15.0001 49.5H9.53007C9.55007 51.42 10.6801 52.79 12.3901 52.79C13.2101 52.79 13.8601 52.52 14.4301 52.12L14.7201 52.65C14.1201 53.02 13.4401 53.4 12.3301 53.4C10.3901 53.39 8.82007 51.9 8.82007 49.42ZM14.3801 48.93C14.3801 46.99 13.5001 46.03 12.1401 46.03C10.8601 46.03 9.70007 47.12 9.54007 48.93H14.3801Z" fill="#1D1D1B"/>
<path d="M16.9401 51.31C16.9401 49.62 18.4601 48.82 21.8401 48.45C21.8601 47.28 21.5401 46.03 20.0501 46.03C19.0301 46.03 18.1401 46.54 17.6301 46.92L17.3101 46.4C17.8501 46.02 18.9001 45.41 20.1301 45.41C21.9301 45.41 22.5401 46.72 22.5401 48.34V53.19H21.9501L21.8701 52.2H21.8401C21.0701 52.83 20.1401 53.38 19.1501 53.38C17.9401 53.39 16.9401 52.74 16.9401 51.31ZM21.8401 51.56V48.98C18.7201 49.34 17.6601 50.06 17.6601 51.27C17.6601 52.36 18.4001 52.78 19.2701 52.78C20.1401 52.78 20.9001 52.36 21.8401 51.56Z" fill="#1D1D1B"/>
<path d="M25.8801 51.11V46.23H24.7001V45.69L25.9001 45.62L25.9901 43.42H26.5801V45.62H28.7801V46.23H26.5801V51.17C26.5801 52.14 26.8201 52.79 27.8701 52.79C28.1501 52.79 28.5501 52.67 28.8201 52.55L29.0001 53.12C28.5601 53.27 28.0801 53.4 27.7601 53.4C26.3101 53.39 25.8801 52.46 25.8801 51.11Z" fill="#1D1D1B"/>
<path d="M31.15 50.48V45.61H31.85V50.39C31.85 52 32.36 52.77 33.58 52.77C34.48 52.77 35.14 52.3 36.03 51.22V45.62H36.73V53.21H36.14L36.06 51.94H36.03C35.28 52.81 34.5 53.4 33.45 53.4C31.88 53.39 31.15 52.44 31.15 50.48Z" fill="#1D1D1B"/>
<path d="M40.26 45.61H40.85L40.93 47.03H40.96C41.47 46.1 42.22 45.42 43.12 45.42C43.4 45.42 43.62 45.46 43.87 45.58L43.71 46.21C43.45 46.12 43.31 46.08 43.02 46.08C42.34 46.08 41.53 46.6 40.95 48.03V53.19H40.25V45.61H40.26Z" fill="#1D1D1B"/>
<path d="M45.11 49.42C45.11 46.94 46.72 45.42 48.42 45.42C50.22 45.42 51.33 46.7 51.33 48.93C51.33 49.12 51.32 49.31 51.29 49.5H45.83C45.86 51.42 46.98 52.79 48.69 52.79C49.51 52.79 50.16 52.52 50.73 52.12L51.02 52.65C50.42 53.02 49.74 53.4 48.63 53.4C46.68 53.39 45.11 51.9 45.11 49.42ZM50.67 48.93C50.67 46.99 49.79 46.03 48.43 46.03C47.15 46.03 45.99 47.12 45.83 48.93H50.67Z" fill="#1D1D1B"/>
<path d="M60.1301 43.41H56.8101V42.78H64.1701V43.41H60.8501V53.2H60.1201V43.41H60.1301Z" fill="#1D1D1B"/>
<path d="M65.14 49.42C65.14 46.88 66.72 45.42 68.55 45.42C70.38 45.42 71.96 46.88 71.96 49.42C71.96 51.93 70.38 53.39 68.55 53.39C66.72 53.39 65.14 51.93 65.14 49.42ZM71.22 49.42C71.22 47.42 70.08 46.04 68.55 46.04C67.02 46.04 65.88 47.42 65.88 49.42C65.88 51.42 67.02 52.77 68.55 52.77C70.08 52.77 71.22 51.42 71.22 49.42Z" fill="#1D1D1B"/>
<path d="M74.23 54.75C74.23 54.09 74.67 53.41 75.36 52.92V52.86C74.98 52.63 74.69 52.22 74.69 51.64C74.69 50.96 75.18 50.48 75.52 50.24V50.18C75.04 49.77 74.56 49.02 74.56 48.1C74.56 46.54 75.75 45.42 77.23 45.42C77.64 45.42 78 45.51 78.24 45.61H80.81V46.2H79.05C79.54 46.62 79.89 47.3 79.89 48.1C79.89 49.65 78.72 50.78 77.24 50.78C76.82 50.78 76.33 50.66 75.98 50.46C75.65 50.73 75.36 51.05 75.36 51.56C75.36 52.11 75.68 52.55 76.81 52.55H78.44C80.15 52.55 80.94 53.09 80.94 54.29C80.94 55.6 79.54 56.85 77.35 56.85C75.43 56.86 74.23 56.03 74.23 54.75ZM80.22 54.37C80.22 53.53 79.61 53.21 78.46 53.21H76.83C76.68 53.21 76.28 53.18 75.89 53.09C75.19 53.56 74.89 54.15 74.89 54.68C74.89 55.64 75.81 56.29 77.41 56.29C79.13 56.29 80.22 55.32 80.22 54.37ZM79.19 48.1C79.19 46.82 78.3 46 77.23 46C76.15 46 75.27 46.8 75.27 48.1C75.27 49.37 76.19 50.23 77.23 50.23C78.28 50.23 79.19 49.37 79.19 48.1Z" fill="#1D1D1B"/>
<path d="M82.5601 54.75C82.5601 54.09 83.0001 53.41 83.6901 52.92V52.86C83.3101 52.63 83.0201 52.22 83.0201 51.64C83.0201 50.96 83.5101 50.48 83.8501 50.24V50.18C83.3701 49.77 82.8901 49.02 82.8901 48.1C82.8901 46.54 84.0801 45.42 85.5601 45.42C85.9701 45.42 86.3301 45.51 86.5701 45.61H89.1401V46.2H87.3801C87.8701 46.62 88.2201 47.3 88.2201 48.1C88.2201 49.65 87.0501 50.78 85.5701 50.78C85.1501 50.78 84.6601 50.66 84.3101 50.46C83.9801 50.73 83.6901 51.05 83.6901 51.56C83.6901 52.11 84.0101 52.55 85.1401 52.55H86.7701C88.4801 52.55 89.2701 53.09 89.2701 54.29C89.2701 55.6 87.8701 56.85 85.6801 56.85C83.7601 56.86 82.5601 56.03 82.5601 54.75ZM88.5501 54.37C88.5501 53.53 87.9401 53.21 86.7901 53.21H85.1601C85.0101 53.21 84.6101 53.18 84.2201 53.09C83.5201 53.56 83.2201 54.15 83.2201 54.68C83.2201 55.64 84.1401 56.29 85.7401 56.29C87.4601 56.29 88.5501 55.32 88.5501 54.37ZM87.5201 48.1C87.5201 46.82 86.6301 46 85.5601 46C84.4801 46 83.6001 46.8 83.6001 48.1C83.6001 49.37 84.5201 50.23 85.5601 50.23C86.6001 50.23 87.5201 49.37 87.5201 48.1Z" fill="#1D1D1B"/>
<path d="M91.53 52.18V41.83H92.23V52.28C92.23 52.62 92.37 52.78 92.56 52.78C92.63 52.78 92.69 52.78 92.84 52.75L92.96 53.32C92.82 53.36 92.69 53.4 92.46 53.4C91.84 53.39 91.53 53.02 91.53 52.18Z" fill="#1D1D1B"/>
<path d="M95.27 49.42C95.27 46.94 96.88 45.42 98.58 45.42C100.38 45.42 101.49 46.7 101.49 48.93C101.49 49.12 101.48 49.31 101.45 49.5H95.99C96.01 51.42 97.14 52.79 98.85 52.79C99.67 52.79 100.32 52.52 100.89 52.12L101.18 52.65C100.58 53.02 99.9 53.4 98.79 53.4C96.84 53.39 95.27 51.9 95.27 49.42ZM100.83 48.93C100.83 46.99 99.95 46.03 98.59 46.03C97.31 46.03 96.15 47.12 95.99 48.93H100.83Z" fill="#1D1D1B"/>
<path d="M107.03 45.68L108.09 45.61H110.53V46.22H107.03V45.68ZM108.07 43.92C108.07 42.41 108.75 41.64 109.95 41.64C110.31 41.64 110.71 41.74 111.06 41.9L110.87 42.47C110.56 42.32 110.25 42.26 109.97 42.26C109.15 42.26 108.78 42.88 108.78 43.98V53.21H108.08V43.92H108.07Z" fill="#1D1D1B"/>
<path d="M111.96 49.42C111.96 46.88 113.54 45.42 115.37 45.42C117.2 45.42 118.78 46.88 118.78 49.42C118.78 51.93 117.2 53.39 115.37 53.39C113.54 53.39 111.96 51.93 111.96 49.42ZM118.04 49.42C118.04 47.42 116.9 46.04 115.37 46.04C113.84 46.04 112.7 47.42 112.7 49.42C112.7 51.42 113.84 52.77 115.37 52.77C116.9 52.77 118.04 51.42 118.04 49.42Z" fill="#1D1D1B"/>
<path d="M121.69 45.61H122.28L122.36 47.03H122.39C122.9 46.1 123.65 45.42 124.55 45.42C124.83 45.42 125.05 45.46 125.3 45.58L125.14 46.21C124.88 46.12 124.74 46.08 124.45 46.08C123.77 46.08 122.96 46.6 122.38 48.03V53.19H121.68V45.61H121.69Z" fill="#1D1D1B"/>
<path d="M130.58 51.31C130.58 49.62 132.1 48.82 135.48 48.45C135.5 47.28 135.18 46.03 133.69 46.03C132.67 46.03 131.78 46.54 131.27 46.92L130.95 46.4C131.49 46.02 132.54 45.41 133.77 45.41C135.57 45.41 136.18 46.72 136.18 48.34V53.19H135.59L135.51 52.2H135.47C134.7 52.83 133.77 53.38 132.78 53.38C131.58 53.39 130.58 52.74 130.58 51.31ZM135.48 51.56V48.98C132.36 49.34 131.3 50.06 131.3 51.27C131.3 52.36 132.04 52.78 132.91 52.78C133.78 52.78 134.54 52.36 135.48 51.56Z" fill="#1D1D1B"/>
<path d="M139.52 45.61H140.11L140.19 46.56H140.22C140.96 45.97 141.86 45.42 142.8 45.42C144.84 45.42 145.84 46.94 145.84 49.29C145.84 51.87 144.28 53.39 142.5 53.39C141.78 53.39 141.01 53.05 140.22 52.46L140.23 53.86V56.64H139.53V45.61H139.52ZM145.1 49.3C145.1 47.43 144.44 46.04 142.68 46.04C141.93 46.04 141.13 46.48 140.21 47.29V51.79C141.07 52.5 141.87 52.77 142.45 52.77C144 52.77 145.1 51.36 145.1 49.3Z" fill="#1D1D1B"/>
<path d="M148.75 45.61H149.34L149.42 46.56H149.45C150.19 45.97 151.09 45.42 152.03 45.42C154.07 45.42 155.07 46.94 155.07 49.29C155.07 51.87 153.51 53.39 151.73 53.39C151.01 53.39 150.24 53.05 149.45 52.46L149.46 53.86V56.64H148.76V45.61H148.75ZM154.34 49.3C154.34 47.43 153.68 46.04 151.92 46.04C151.17 46.04 150.37 46.48 149.45 47.29V51.79C150.31 52.5 151.11 52.77 151.69 52.77C153.23 52.77 154.34 51.36 154.34 49.3Z" fill="#1D1D1B"/>
<path d="M157.02 52.34L157.43 51.83C158.07 52.37 158.76 52.79 159.84 52.79C161.04 52.79 161.65 52.09 161.65 51.29C161.65 50.34 160.67 49.92 159.79 49.6C158.65 49.19 157.37 48.73 157.37 47.43C157.37 46.34 158.24 45.41 159.82 45.41C160.63 45.41 161.44 45.75 161.99 46.2L161.61 46.7C161.1 46.32 160.56 46.01 159.8 46.01C158.62 46.01 158.08 46.69 158.08 47.39C158.08 48.26 158.97 48.59 159.88 48.93C161.06 49.38 162.36 49.76 162.36 51.24C162.36 52.38 161.45 53.38 159.8 53.38C158.68 53.39 157.7 52.92 157.02 52.34Z" fill="#1D1D1B"/>
<path d="M164.2 14.72C164.22 14.61 164.79 12.07 164.22 9.09003C163.69 6.30003 162.04 2.60003 157.22 0.780028C157.21 0.780028 157.21 0.770028 157.2 0.770028C157.18 0.760028 157.17 0.760028 157.15 0.750028C157.13 0.740028 157.12 0.740028 157.1 0.730028C157.09 0.730028 157.09 0.730028 157.08 0.720028C152.23 -1.01997 148.58 0.710028 146.36 2.49003C143.99 4.39003 142.76 6.69003 142.71 6.78003C142.69 6.81003 142.68 6.85003 142.66 6.88003L138.73 17.52C138.57 17.96 138.79 18.45 139.24 18.62C139.69 18.79 140.17 18.56 140.34 18.11L143.65 9.14003C143.89 8.81003 145.03 7.47003 146.91 8.17003C148.77 8.86003 148.61 10.55 148.55 10.91L146.36 16.83C146.2 17.27 146.42 17.76 146.87 17.93C147.32 18.1 147.8 17.87 147.97 17.42L150.18 11.44C150.19 11.4 150.21 11.36 150.21 11.32C150.47 10.12 150.23 7.58003 147.5 6.57003C146.58 6.23003 145.74 6.20003 145.02 6.36003C145.57 5.62003 146.39 4.65003 147.47 3.79003C150.2 1.63003 153.26 1.14003 156.55 2.35003C159.84 3.58003 161.85 5.94003 162.51 9.35003C162.78 10.73 162.77 12.01 162.7 12.94C162.27 12.34 161.62 11.8 160.67 11.44C157.99 10.45 156.01 12.12 155.34 13.15C155.3 13.2 155.28 13.26 155.25 13.32L153.04 19.3C152.88 19.74 153.1 20.23 153.55 20.4C153.99 20.56 154.48 20.34 154.65 19.89L156.82 14.01C157.09 13.65 158.22 12.35 160.08 13.04C162.05 13.77 161.75 15.62 161.71 15.84C161.67 16.02 161.7 16.2 161.77 16.36L158.62 24.87C158.46 25.31 158.68 25.8 159.13 25.97C159.58 26.14 160.06 25.91 160.23 25.46L164.16 14.82C164.18 14.79 164.19 14.76 164.2 14.72Z" fill="#1B2E35"/>
<path d="M152.83 12.1C152.39 11.94 151.9 12.16 151.73 12.61L148.64 20.97C148.48 21.41 148.7 21.9 149.15 22.07C149.6 22.24 150.08 22.01 150.25 21.56L153.34 13.2C153.5 12.76 153.27 12.26 152.83 12.1Z" fill="#5AE4A8"/>
<path d="M148.56 23.64C148.12 23.48 147.63 23.7 147.46 24.15L144.32 32.65C144.16 33.09 144.38 33.58 144.83 33.75C145.27 33.91 145.76 33.69 145.93 33.24L149.07 24.74C149.23 24.3 149.01 23.8 148.56 23.64Z" fill="#FF004F"/>
<path d="M159.29 14.87C158.85 14.71 158.36 14.93 158.19 15.38L154.56 25.2C154.4 25.64 154.62 26.13 155.07 26.3C155.52 26.47 156 26.24 156.17 25.79L159.8 15.97C159.96 15.52 159.74 15.03 159.29 14.87Z" fill="#FF004F"/>
<path d="M154.41 28.07C153.97 27.91 153.48 28.13 153.31 28.58L152.27 31.38C152.11 31.82 152.33 32.31 152.78 32.48C153.22 32.64 153.71 32.42 153.88 31.97L154.92 29.17C155.08 28.73 154.86 28.23 154.41 28.07Z" fill="#FF004F"/>
<path d="M146.12 10C145.68 9.84002 145.19 10.06 145.02 10.51L141.39 20.33C141.23 20.77 141.45 21.26 141.9 21.43C142.35 21.6 142.83 21.37 143 20.92L146.63 11.1C146.79 10.65 146.56 10.16 146.12 10Z" fill="#5AE4A8"/>
<path d="M141.24 23.2C140.8 23.04 140.31 23.26 140.14 23.71L139.1 26.51C138.94 26.95 139.16 27.44 139.61 27.61C140.06 27.78 140.54 27.55 140.71 27.1L141.75 24.3C141.91 23.86 141.68 23.37 141.24 23.2Z" fill="#5AE4A8"/>
<path d="M0 5.85004H8.85L13.56 18.64C14.14 20.37 14.62 22.3 15.2 24.12H15.39C15.97 22.29 16.45 20.37 17.03 18.64L21.55 5.85004H30.4V37.11H22.9V27.88C22.9 24.71 23.57 19.85 23.96 16.72H23.77L21.17 24.22L17.32 34.56H12.9L9.04 24.23L6.54 16.73H6.35C6.73 19.86 7.41 24.71 7.41 27.89V37.12H0V5.85004Z" fill="#1B2E35"/>
<path d="M29.62 25.09C29.62 17.3 35.3 12.49 41.16 12.49C48.28 12.49 51.64 17.68 51.64 24.13C51.64 25.57 51.45 27.02 51.3 27.59H37.61C38.38 30.48 40.5 31.44 43.19 31.44C44.83 31.44 46.36 30.96 48.1 30L50.79 34.91C48.19 36.74 44.73 37.7 42.04 37.7C35.01 37.69 29.62 33.08 29.62 25.09ZM44.63 22.21C44.63 20.38 43.86 18.75 41.36 18.75C39.53 18.75 37.99 19.81 37.51 22.21H44.63Z" fill="#1B2E35"/>
<path d="M51.26 25.09C51.26 17.2 56.17 12.49 61.07 12.49C63.67 12.49 65.21 13.45 66.65 14.89L66.36 11.43V3.64001H74.63V37.11H67.9L67.32 34.9H67.13C65.49 36.54 63.19 37.69 61.07 37.69C55.11 37.69 51.26 32.88 51.26 25.09ZM66.36 29.23V20.38C65.4 19.51 64.15 19.23 63.09 19.23C61.36 19.23 59.72 20.77 59.72 25C59.72 29.33 61.07 30.96 63.28 30.96C64.54 30.96 65.5 30.57 66.36 29.23Z" fill="#1B2E35"/>
<path d="M76.17 27.88V13.07H84.44V26.82C84.44 29.9 85.21 30.67 86.84 30.67C88.38 30.67 89.24 30.09 90.3 28.55V13.07H98.57V37.12H91.84L91.26 33.95H91.07C89.15 36.26 86.93 37.7 83.66 37.7C78.39 37.69 76.17 33.85 76.17 27.88Z" fill="#1B2E35"/>
<path d="M98.39 34.33L102.05 29.23C104.26 30.87 106.23 31.64 107.92 31.64C109.65 31.64 110.32 31.16 110.32 30.2C110.32 28.95 108.11 28.37 105.7 27.41C102.91 26.3 99.64 24.24 99.64 20.29C99.64 15.58 103.49 12.5 109.16 12.5C113.1 12.5 115.89 14.09 118.01 15.67L114.35 20.58C112.62 19.33 110.93 18.56 109.44 18.56C108.04 18.56 107.32 18.94 107.32 19.91C107.32 21.16 109.44 21.64 111.84 22.51C114.73 23.57 118 25.4 118 29.72C118 34.24 114.44 37.7 107.71 37.7C104.64 37.69 100.89 36.35 98.39 34.33Z" fill="#1B2E35"/>
<path d="M117.24 30.29C117.24 25.29 121.09 22.5 130.32 21.54C130.13 19.81 129.07 19.04 126.95 19.04C125.22 19.04 123.39 19.71 120.89 21.06L118 15.67C121.37 13.65 124.83 12.5 128.58 12.5C134.83 12.5 138.58 15.87 138.58 23.75V37.12H131.85L131.27 34.81H131.08C129.16 36.54 127.04 37.7 124.44 37.7C119.93 37.69 117.24 34.23 117.24 30.29ZM130.32 29.71V26.44C126.38 27.02 125.13 28.27 125.13 29.61C125.13 30.72 125.9 31.34 127.34 31.34C128.69 31.34 129.46 30.67 130.32 29.71Z" fill="#1B2E35"/>
</g>
<defs>
<clipPath id="clip0_3_96">
<rect width="164.47" height="56.86" fill="white"/>
</clipPath>
</defs>
</svg>
