<svg width="141" height="32" viewBox="0 0 141 32" fill="none" xmlns="http://www.w3.org/2000/svg">
<path d="M13.6534 0.00250948C12.5212 -0.0548799 11.5908 0.879746 11.6479 2.01699C11.6969 2.99144 12.4851 3.78201 13.454 3.8312C14.5862 3.88859 15.5166 2.95396 15.4595 1.81672C15.4105 0.843439 14.6235 0.0517003 13.6534 0.00250948ZM17.8543 2.42926C16.7222 2.37187 15.7918 3.3065 15.8489 4.44374C15.8979 5.41819 16.6861 6.20876 17.655 6.25795C18.7871 6.31534 19.7176 5.38071 19.6604 4.24347C19.6115 3.27019 18.8233 2.47845 17.8543 2.42926ZM22.0541 4.85484C20.922 4.79745 19.9916 5.7309 20.0487 6.86932C20.0977 7.84377 20.8858 8.63434 21.8548 8.68353C22.9869 8.74092 23.9173 7.80746 23.8602 6.66904C23.8124 5.69577 23.0242 4.9052 22.0541 4.85484ZM26.0569 11.1103C27.189 11.1677 28.1195 10.2342 28.0623 9.09579C28.0134 8.12134 27.2252 7.33078 26.2563 7.28159C25.1241 7.2242 24.1937 8.15765 24.2508 9.29607C24.2986 10.2693 25.0868 11.0611 26.0569 11.1103ZM13.6534 4.85484C12.5212 4.79745 11.5908 5.7309 11.6479 6.86932C11.6969 7.84377 12.4851 8.63434 13.454 8.68353C14.5862 8.74092 15.5166 7.80746 15.4595 6.66904C15.4117 5.69577 14.6235 4.9052 13.6534 4.85484ZM17.8543 7.28159C16.7222 7.2242 15.7918 8.15765 15.8489 9.29607C15.8979 10.2705 16.6861 11.0611 17.655 11.1103C18.7871 11.1677 19.7176 10.2342 19.6604 9.09579C19.6115 8.12252 18.8233 7.33078 17.8543 7.28159ZM22.0541 9.70834C20.922 9.65095 19.9916 10.5856 20.0487 11.7228C20.0977 12.6973 20.8858 13.4878 21.8548 13.537C22.9869 13.5944 23.9173 12.6598 23.8602 11.5225C23.8124 10.5481 23.0242 9.75753 22.0541 9.70834ZM26.2551 12.1339C25.1229 12.0765 24.1925 13.0112 24.2496 14.1484C24.2986 15.1228 25.0868 15.9134 26.0557 15.9626C27.1879 16.02 28.1183 15.0854 28.0612 13.9481C28.0122 12.9748 27.224 12.1831 26.2551 12.1339ZM13.6534 9.70834C12.5212 9.65095 11.5908 10.5856 11.6479 11.7228C11.6969 12.6973 12.4851 13.4878 13.454 13.537C14.5862 13.5944 15.5166 12.6598 15.4595 11.5225C15.4105 10.5481 14.6235 9.75753 13.6534 9.70834ZM17.8543 12.1339C16.7222 12.0765 15.7918 13.0112 15.8489 14.1484C15.8979 15.1228 16.6861 15.9134 17.655 15.9626C18.7871 16.02 19.7176 15.0854 19.6604 13.9481C19.6115 12.9748 18.8233 12.1831 17.8543 12.1339ZM22.0541 14.5607C20.922 14.5033 19.9916 15.4379 20.0487 16.5751C20.0977 17.5496 20.8858 18.3402 21.8548 18.3894C22.9869 18.4467 23.9173 17.5121 23.8602 16.3749C23.8124 15.4016 23.0242 14.6099 22.0541 14.5607ZM26.2551 16.9862C25.1229 16.9289 24.1925 17.8635 24.2496 19.0007C24.2986 19.9752 25.0868 20.7657 26.0557 20.8149C27.1879 20.8723 28.1183 19.9377 28.0612 18.8004C28.0122 17.8272 27.224 17.0366 26.2551 16.9862ZM13.6534 14.5607C12.5212 14.5033 11.5908 15.4379 11.6479 16.5751C11.6969 17.5496 12.4851 18.3402 13.454 18.3894C14.5862 18.4467 15.5166 17.5121 15.4595 16.3749C15.4105 15.4016 14.6235 14.6099 13.6534 14.5607ZM17.8543 16.9862C16.7222 16.9289 15.7918 17.8635 15.8489 19.0007C15.8979 19.9752 16.6861 20.7657 17.655 20.8149C18.7871 20.8723 19.7176 19.9377 19.6604 18.8004C19.6115 17.8272 18.8233 17.0366 17.8543 16.9862ZM22.0541 19.413C20.922 19.3556 19.9916 20.2902 20.0487 21.4275C20.0977 22.4019 20.8858 23.1925 21.8548 23.2417C22.9869 23.2991 23.9173 22.3644 23.8602 21.2272C23.8112 20.2539 23.0242 19.4622 22.0541 19.413ZM26.2551 21.8397C25.1229 21.7824 24.1925 22.7158 24.2496 23.8542C24.2986 24.8287 25.0868 25.6192 26.0557 25.6684C27.1879 25.7258 28.1183 24.7924 28.0612 23.6539C28.0122 22.6807 27.2252 21.8889 26.2551 21.8397Z" fill="#FF6633"/>
<path d="M17.7552 27.321C17.6048 27.321 17.4614 27.3491 17.3285 27.3983C17.2154 27.4393 17.0988 27.4686 16.9787 27.4768C16.9542 27.478 16.9309 27.4791 16.9122 27.4791C16.0483 27.4791 15.2985 26.9919 14.9184 26.2763L14.9126 26.2646C14.8613 26.1674 14.8275 26.062 14.8088 25.953C14.7027 25.3522 14.185 24.8943 13.5554 24.8943C13.4085 24.8943 13.2674 24.9212 13.1368 24.9681C13.0203 25.0102 12.899 25.0407 12.7754 25.05C12.7509 25.0524 12.7288 25.0524 12.7089 25.0524C11.824 25.0524 11.0696 24.5593 10.7 23.8179L10.6988 23.8168C10.6557 23.7289 10.6254 23.6352 10.609 23.538C10.5064 22.9313 9.98643 22.4687 9.35331 22.4687C9.20756 22.4687 9.06882 22.4956 8.93823 22.5413C8.83446 22.5776 8.72719 22.6022 8.61759 22.6092C8.58028 22.6116 8.54413 22.6128 8.51615 22.6128C7.57522 22.6128 6.76488 21.9323 6.42558 21.1113L6.37894 20.9813C6.32764 20.7974 6.23786 20.6299 6.1166 20.4893C6.02216 20.3792 5.93238 20.2668 5.85426 20.145C5.78197 20.0314 5.70269 19.9026 5.66538 19.8206C5.53129 19.5243 5.42286 19.201 5.42286 18.9012C5.42286 18.5393 5.50797 18.1973 5.65955 17.8939C5.66887 17.8752 5.68053 17.8518 5.69453 17.8272C5.77847 17.6726 5.89157 17.5355 6.02099 17.4161C6.28683 17.169 6.44774 16.8106 6.43025 16.4147C6.39993 15.753 5.86242 15.2165 5.20366 15.1908C4.47376 15.1627 3.8733 15.7483 3.8733 16.4744C3.8733 16.8469 4.03187 17.1818 4.28371 17.4173C4.42596 17.5496 4.55188 17.6995 4.64516 17.8705C4.66265 17.9021 4.67781 17.9314 4.68947 17.9572C4.82122 18.2441 4.89584 18.5639 4.89584 18.9012C4.89584 19.2303 4.87136 19.8417 4.40148 20.2879C4.08783 20.5854 3.83365 20.966 3.87796 21.4439C3.9281 21.9932 4.33035 22.4488 4.86436 22.5776C5.12554 22.6409 5.37039 22.6139 5.58842 22.5308C5.70152 22.4874 5.82045 22.4605 5.94171 22.4558C5.96503 22.4546 5.98485 22.4546 6.00117 22.4546C6.85699 22.4546 7.6102 22.9138 7.9938 23.6153L7.99496 23.6165C8.04277 23.7031 8.07192 23.7992 8.08358 23.8987C8.1547 24.5406 8.69454 25.0395 9.35214 25.0395C9.50488 25.0395 9.64946 25.0102 9.78471 24.9599C9.89315 24.92 10.0051 24.8919 10.1205 24.8849C10.152 24.8826 10.1811 24.8814 10.2021 24.8814C11.023 24.8814 11.7435 25.3276 12.14 25.987C12.1423 25.9917 12.1458 25.9964 12.1493 26.0022C12.2216 26.1276 12.274 26.2646 12.2997 26.4086C12.4058 27.0095 12.9246 27.4674 13.5543 27.4674C13.7105 27.4674 13.8586 27.437 13.995 27.3843C14.1221 27.3351 14.2573 27.3116 14.3938 27.3093C14.4008 27.3093 14.4066 27.3093 14.4124 27.3093C15.2239 27.3093 15.9235 27.7298 16.3188 28.3728C16.3223 28.3786 16.3258 28.3845 16.3292 28.3903C16.4144 28.5344 16.4727 28.6937 16.5053 28.8588C16.6242 29.4667 17.1652 29.9223 17.8112 29.8942C18.47 29.8661 19.0063 29.3261 19.0331 28.6632C19.0623 27.9254 18.4793 27.321 17.7552 27.321ZM5.15352 12.9069C5.86009 12.9069 6.43258 12.3319 6.43258 11.6221C6.43258 10.9123 5.86009 10.3373 5.15352 10.3373C4.44695 10.3373 3.87446 10.9123 3.87446 11.6221C3.87446 12.3319 4.44695 12.9069 5.15352 12.9069ZM5.15352 8.05459C5.86009 8.05459 6.43258 7.47953 6.43258 6.76977C6.43258 6.06002 5.86009 5.48495 5.15352 5.48495C4.44695 5.48495 3.87446 6.06002 3.87446 6.76977C3.87446 7.47953 4.44695 8.05459 5.15352 8.05459Z" fill="#FF9900"/>
<path d="M22.1241 24.5874C21.8746 24.5616 21.6367 24.5944 21.4198 24.6717C21.3149 24.7092 21.2076 24.7443 21.0992 24.7689C20.9908 24.7935 20.8648 24.817 20.7739 24.817C20.2096 24.817 19.721 24.4925 19.482 24.0194C19.4459 23.9491 19.4086 23.8285 19.3806 23.7266C19.3584 23.6469 19.3386 23.5661 19.3246 23.4841C19.1975 22.7287 18.5434 22.1525 17.7552 22.1525C17.5384 22.1525 17.3331 22.197 17.1454 22.2754C17.1139 22.2883 17.0825 22.3024 17.0498 22.3141C16.9006 22.3668 16.7397 22.3984 16.5729 22.3984C15.9795 22.3984 15.4699 22.04 15.2461 21.527C15.1843 21.3853 15.1272 21.0703 15.1272 21.0703C15.0047 20.3078 14.3483 19.7257 13.5554 19.7257C13.3631 19.7257 13.1788 19.762 13.0074 19.8253C13.0074 19.8253 12.6005 19.9635 12.3767 19.9635C11.7622 19.9635 11.2387 19.5793 11.0276 19.037C10.9752 18.9023 10.9192 18.5978 10.9192 18.5978C10.8492 18.2324 10.6557 17.9115 10.384 17.6808C10.3071 17.6152 10.2336 17.5473 10.166 17.4711C10.0902 17.3868 10.0016 17.279 9.95495 17.2006C9.83136 16.9874 9.76141 16.7391 9.76141 16.4744C9.76141 16.1652 9.85702 15.8783 10.0214 15.6429C10.0564 15.5913 10.117 15.5234 10.173 15.4648C10.2371 15.3969 10.3071 15.3337 10.3782 15.2728C10.7257 14.9788 10.9484 14.5408 10.9484 14.0477C10.9484 13.5546 10.7257 13.1154 10.377 12.8226C10.3001 12.757 10.2243 12.6902 10.1555 12.6165C10.1287 12.5872 10.103 12.5591 10.0844 12.5368C9.88267 12.2873 9.76257 11.9688 9.76257 11.6221C9.76257 11.3609 9.83136 11.115 9.95146 10.903C10.0016 10.8151 10.103 10.6945 10.1835 10.6055C10.2441 10.5387 10.3094 10.4778 10.3782 10.4204C10.7513 10.1066 10.9798 9.62401 10.9449 9.08994C10.8924 8.27829 10.2278 7.62827 9.41861 7.59665C8.50917 7.56034 7.76062 8.29117 7.76062 9.19652C7.76062 9.68843 7.98215 10.1276 8.33077 10.4216C8.40073 10.4813 8.46836 10.5422 8.53132 10.6102C8.59895 10.684 8.6794 10.7765 8.72137 10.8444C8.86362 11.0693 8.9464 11.3375 8.9464 11.6233C8.9464 11.9699 8.82514 12.2885 8.62343 12.5392C8.60477 12.5614 8.58029 12.5895 8.55347 12.6188C8.48352 12.6926 8.40889 12.7605 8.33077 12.8261C7.98332 13.1201 7.76062 13.5581 7.76062 14.0512C7.76062 14.5454 7.98448 14.9858 8.33427 15.2786C8.4054 15.3384 8.47302 15.3993 8.53715 15.4672C8.58262 15.5152 8.62926 15.5679 8.65958 15.6077C8.8403 15.8502 8.9464 16.1512 8.9464 16.4779C8.9464 16.7801 8.85429 17.0612 8.69689 17.2943C8.65957 17.3493 8.59312 17.4243 8.53482 17.4887C8.47186 17.5566 8.4019 17.6199 8.33077 17.6796C7.95767 17.9935 7.73031 18.4749 7.76412 19.0089C7.81542 19.8159 8.47186 20.4647 9.2752 20.5034C9.51539 20.5151 9.74508 20.4729 9.95262 20.3886C10.089 20.3324 10.2313 20.2914 10.3782 20.2727C10.4377 20.2656 10.496 20.2598 10.5403 20.2598C11.0428 20.2598 11.4859 20.5174 11.7459 20.9086C11.7704 20.9449 11.796 20.9953 11.8217 21.0492C11.9009 21.2178 11.9546 21.397 11.9826 21.5809C12.1027 22.3457 12.7591 22.9313 13.5543 22.9313C13.756 22.9313 13.9484 22.8927 14.1256 22.8236C14.2492 22.7755 14.3774 22.7381 14.508 22.7193C14.5885 22.7076 14.6736 22.6982 14.7354 22.6982C15.2577 22.6982 15.7148 22.9758 15.9701 23.3916C16.0051 23.449 16.0424 23.5357 16.0751 23.62C16.1264 23.7523 16.1602 23.8905 16.1847 24.0311C16.3141 24.7853 16.9659 25.3581 17.7541 25.3581C17.9546 25.3581 18.1458 25.3194 18.323 25.2515C18.4711 25.1941 18.6262 25.1554 18.7836 25.132C18.8396 25.1238 18.8944 25.118 18.9387 25.118C19.5182 25.118 20.0184 25.4611 20.2492 25.9554C20.2749 26.0116 20.3028 26.0971 20.325 26.1744C20.3506 26.2646 20.3681 26.3559 20.3833 26.4473C20.5081 27.2062 21.1645 27.7848 21.955 27.7848C22.8726 27.7848 23.6095 27.0048 23.5454 26.069C23.4917 25.296 22.8878 24.6682 22.1241 24.5874ZM9.35449 5.94407C10.2348 5.94407 10.9484 5.22728 10.9484 4.34302C10.9484 3.45875 10.2348 2.74197 9.35449 2.74197C8.47419 2.74197 7.76062 3.45875 7.76062 4.34302C7.76062 5.22728 8.47419 5.94407 9.35449 5.94407Z" fill="#FF6633"/>
<path d="M0.952589 19.8698C1.47727 19.8698 1.90285 19.4364 1.90285 18.9012C1.90285 18.3659 1.47727 17.9326 0.952589 17.9326C0.427907 17.9326 0.00233242 18.3659 0.00233242 18.9012C0.00233242 19.4364 0.427907 19.8698 0.952589 19.8698ZM0.952589 15.0174C1.47727 15.0174 1.90285 14.5841 1.90285 14.0488C1.90285 13.5136 1.47727 13.0802 0.952589 13.0802C0.427907 13.0802 0.00233242 13.5136 0.00233242 14.0488C0.00233242 14.5841 0.427907 15.0174 0.952589 15.0174ZM0.952589 10.1651C1.47727 10.1651 1.90285 9.73175 1.90285 9.19651C1.90285 8.66127 1.47727 8.22792 0.952589 8.22792C0.427907 8.22792 0.00233242 8.66127 0.00233242 9.19651C0.00233242 9.73175 0.427907 10.1651 0.952589 10.1651ZM13.5543 30.064C13.5181 30.064 13.2243 30.0851 13.1147 30.0851C11.9091 30.0851 10.8656 29.4151 10.3421 28.436C10.3024 28.3622 10.2126 28.1982 10.2126 28.1982C10.0611 27.868 9.7346 27.6372 9.35333 27.6372C9.32185 27.6372 9.02919 27.6677 8.91026 27.6677C7.74547 27.6677 6.73225 27.0423 6.19241 26.1158C6.12712 26.0034 6.00469 25.7574 6.00469 25.7574C5.85079 25.4354 5.52898 25.2105 5.15238 25.2105C5.12556 25.2105 4.82008 25.2374 4.69415 25.2374C3.47573 25.2374 2.4217 24.5534 1.90285 23.5556C1.87719 23.5064 1.85271 23.456 1.83289 23.4033C1.69531 23.0414 1.35368 22.7837 0.950256 22.7837C0.425575 22.7837 0 23.2171 0 23.7523C0 24.2876 0.425575 24.7209 0.950256 24.7209C0.992231 24.7209 1.29305 24.6987 1.40032 24.6987C2.50914 24.6987 3.48155 25.2655 4.03772 26.1182C4.12983 26.2599 4.28257 26.5691 4.28257 26.5691C4.43065 26.9087 4.76294 27.1465 5.15121 27.1465C5.18852 27.1465 5.48701 27.1289 5.59427 27.1289C6.77306 27.1289 7.79677 27.7684 8.33078 28.7136C8.38325 28.8061 8.49052 29.0099 8.49052 29.0099C8.64093 29.3414 8.96856 29.5732 9.351 29.5732C9.38364 29.5732 9.67863 29.5522 9.79173 29.5522C10.9437 29.5522 11.9499 30.1612 12.4944 31.0701C12.5655 31.1895 12.6985 31.4507 12.6985 31.4507C12.8524 31.7751 13.1753 32 13.5519 32C14.0766 32 14.5022 31.5666 14.5022 31.0314C14.5045 30.4973 14.079 30.064 13.5543 30.064Z" fill="#FF9900"/>
<path d="M54.0621 21.1569H53.099C52.9894 21.1569 52.8891 21.2213 52.8436 21.3221L51.947 23.292C51.8619 23.4794 51.9972 23.6914 52.2024 23.6914H53.1806C53.2914 23.6914 53.3916 23.6258 53.4371 23.5251L54.3174 21.5563C54.4014 21.3677 54.2649 21.1569 54.0621 21.1569ZM75.7839 9.62049C74.9444 9.31949 74.035 9.16841 73.0567 9.16841C71.6366 9.16841 70.354 9.48346 69.2067 10.1147C68.0606 10.746 67.1628 11.6198 66.5134 12.7371C65.8651 13.8544 65.5409 15.1064 65.5409 16.4908C65.5409 17.8764 65.8651 19.1272 66.5134 20.2446C67.1616 21.3619 68.0559 22.2368 69.1962 22.8669C70.3365 23.4982 71.6156 23.8132 73.0357 23.8132C74.0186 23.8132 74.9351 23.6575 75.7839 23.3483C75.8947 23.3073 75.9681 23.1995 75.9681 23.0812V22.2262C75.9681 22.0236 75.7617 21.8878 75.5775 21.9686C74.8371 22.293 74.0105 22.4558 73.0964 22.4558C71.963 22.4558 70.9323 22.1958 70.0042 21.6746C69.0761 21.1534 68.3486 20.4401 67.8239 19.536C67.298 18.6306 67.0357 17.6164 67.0357 16.492C67.0357 15.3676 67.298 14.3534 67.8239 13.448C68.3497 12.5427 69.0761 11.8306 70.0042 11.3094C70.9323 10.7882 71.963 10.5282 73.0964 10.5282C74.007 10.5282 74.8336 10.691 75.5775 11.0154C75.7617 11.0962 75.9681 10.9592 75.9681 10.7577V9.89104C75.9693 9.76924 75.8958 9.66149 75.7839 9.62049ZM59.963 9.62284C59.8709 9.42139 59.6715 9.29255 59.4523 9.29255H58.6793C58.4589 9.29255 58.2595 9.42139 58.1686 9.62284L53.879 19.0464C53.7088 19.42 53.9805 19.8452 54.3909 19.8452H55.0834V19.844H62.7053C62.9269 19.844 63.1274 19.974 63.2184 20.1778L64.7154 23.5251C64.7609 23.6258 64.86 23.6914 64.9708 23.6914H65.9304C66.1344 23.6914 66.2697 23.4794 66.1846 23.2932L59.963 9.62284ZM62.0839 18.6107H56.0699C55.8658 18.6107 55.7306 18.3999 55.8133 18.2137L58.8973 11.2789C58.9661 11.1232 59.1865 11.1232 59.2553 11.2789L62.3404 18.2137C62.422 18.3999 62.2868 18.6107 62.0839 18.6107ZM44.5991 16.6454C43.9509 16.3913 43.1009 16.1348 42.0492 15.8736C41.1619 15.6546 40.4553 15.452 39.9306 15.2669C39.4048 15.0819 38.9687 14.8136 38.6201 14.4646C38.2726 14.1144 38.0978 13.6518 38.0978 13.0756C38.0978 12.3084 38.4149 11.7978 39.0503 11.3117C39.5855 10.9018 40.3446 10.6664 41.3228 10.602C41.472 10.5926 41.5898 10.4708 41.5898 10.322V9.58653C41.5898 9.42607 41.4546 9.2949 41.2948 9.30427C40.3784 9.35463 39.5925 9.5268 38.9372 9.82077C38.1456 10.178 37.5579 10.6535 37.1766 11.2508C36.7942 11.847 36.603 12.3916 36.603 13.1177C36.603 14.009 36.8315 14.7153 37.2886 15.2365C37.7456 15.7576 38.2948 16.1453 38.9372 16.3983C39.5785 16.6524 40.439 16.916 41.5175 17.19C42.4188 17.4102 43.1219 17.6117 43.6267 17.7967C44.1316 17.9818 44.5583 18.2465 44.9058 18.5885C45.2544 18.9316 45.4281 19.3907 45.4281 19.967C45.4281 20.7212 45.1075 21.3349 44.4651 21.8081C43.8226 22.2813 42.8607 22.5179 41.5781 22.5179C40.664 22.5179 39.7767 22.3574 38.9163 22.0342C38.1922 21.7636 37.5906 21.4216 37.1079 21.0105C36.9714 20.8934 36.7616 20.9379 36.6811 21.0995L36.3476 21.7589C36.2917 21.8679 36.3103 22.0037 36.399 22.088C36.9201 22.5835 37.6255 22.9875 38.5163 23.3002C39.4922 23.6434 40.5125 23.8144 41.5781 23.8144C42.7523 23.8144 43.7422 23.6399 44.5478 23.2897C45.3535 22.9407 45.9505 22.4663 46.3388 21.8702C46.7282 21.274 46.9229 20.6123 46.9229 19.885C46.9229 19.0078 46.6979 18.3121 46.2466 17.7967C45.7966 17.2837 45.2474 16.8996 44.5991 16.6454ZM79.0229 9.58653C79.0229 9.42373 78.8923 9.29255 78.7303 9.29255H77.7998C77.6378 9.29255 77.5072 9.4249 77.5072 9.58653V23.3963C77.5072 23.5591 77.6378 23.6903 77.7998 23.6903H78.7303C78.8923 23.6903 79.0229 23.5579 79.0229 23.3963V19.9061L79.0241 19.9049V17.9923L79.0229 17.9935V9.58653ZM55.3481 10.3267V9.57482C55.3481 9.41905 55.2222 9.29255 55.0671 9.29255H51.8992C51.7441 9.29255 51.6182 9.41905 51.6182 9.57482V10.3267C51.6182 10.4825 51.7441 10.609 51.8992 10.609H55.0671C55.2222 10.609 55.3481 10.4825 55.3481 10.3267ZM49.7492 9.29255H43.1953C43.0403 9.29255 42.9143 9.41905 42.9143 9.57482V10.3267C42.9143 10.4825 43.0403 10.609 43.1953 10.609H48.5144C48.6695 10.609 48.7954 10.7355 48.7954 10.8913V23.4092C48.7954 23.5649 48.9214 23.6903 49.0753 23.6903H50.0314C50.1864 23.6903 50.3112 23.5649 50.3112 23.4092L50.3123 9.85708C50.3112 9.54554 50.0593 9.29255 49.7492 9.29255ZM98.0561 16.6454C97.4078 16.3913 96.5578 16.1348 95.5061 15.8736C94.6188 15.6546 93.9122 15.452 93.3876 15.2669C92.8617 15.0819 92.4256 14.8136 92.077 14.4646C91.7296 14.1144 91.5547 13.6518 91.5547 13.0756C91.5547 12.3084 91.8718 11.7978 92.5073 11.3117C93.0424 10.9018 93.8015 10.6664 94.7797 10.602C94.929 10.5926 95.0467 10.4708 95.0467 10.322V9.58653C95.0467 9.42607 94.9115 9.2949 94.7517 9.30427C93.8353 9.35463 93.0483 9.5268 92.3942 9.82077C91.6025 10.178 91.0148 10.6535 90.6336 11.2508C90.2511 11.847 90.0599 12.3916 90.0599 13.1177C90.0599 14.009 90.2884 14.7153 90.7455 15.2365C91.2025 15.7576 91.7517 16.1453 92.3942 16.3983C93.0354 16.6524 93.8959 16.916 94.9744 17.19C95.8757 17.4102 96.5788 17.6117 97.0836 17.7967C97.5885 17.9818 98.0152 18.2465 98.3627 18.5885C98.7113 18.9316 98.8851 19.3907 98.8851 19.967C98.8851 20.7212 98.5644 21.3349 97.922 21.8081C97.2795 22.2813 96.3176 22.5179 95.0351 22.5179C94.1209 22.5179 93.2336 22.3574 92.3732 22.0342C91.6491 21.7636 91.0475 21.4216 90.5648 21.0105C90.4283 20.8934 90.2185 20.9379 90.138 21.0995L89.8046 21.7589C89.7486 21.8679 89.7673 22.0037 89.8559 22.088C90.3771 22.5835 91.0825 22.9875 91.9732 23.3002C92.9492 23.6434 93.9694 23.8144 95.0351 23.8144C96.2092 23.8144 97.1991 23.6399 98.0047 23.2897C98.8104 22.9407 99.4074 22.4663 99.7957 21.8702C100.185 21.274 100.38 20.6123 100.38 19.885C100.38 19.0078 100.155 18.3121 99.7036 17.7967C99.2535 17.2837 98.7032 16.8996 98.0561 16.6454ZM103.206 9.29255H96.6522C96.4972 9.29255 96.3712 9.41905 96.3712 9.57482V10.3267C96.3712 10.4825 96.4972 10.609 96.6522 10.609H101.971C102.126 10.609 102.252 10.7355 102.252 10.8913V23.4092C102.252 23.5649 102.378 23.6903 102.532 23.6903H103.488C103.643 23.6903 103.768 23.5649 103.768 23.4092L103.769 9.85708C103.768 9.54554 103.516 9.29255 103.206 9.29255ZM117.595 22.7779C118.464 23.2581 119.413 23.5544 120.444 23.668C120.637 23.6891 120.805 23.5321 120.805 23.3365V22.6338C120.805 22.464 120.678 22.3258 120.51 22.3035C119.738 22.2005 119.021 21.9662 118.362 21.595C117.448 21.0808 116.731 20.3675 116.212 19.4563C115.694 18.544 115.435 17.5262 115.435 16.4018C115.435 15.11 115.777 13.9587 116.462 12.9467C116.818 12.4209 117.263 11.9582 117.775 11.5858C118.589 10.9932 119.502 10.6348 120.51 10.5001C120.677 10.4778 120.805 10.3396 120.805 10.1698V9.46824C120.805 9.27264 120.637 9.11453 120.444 9.13678C119.413 9.25039 118.463 9.54671 117.595 10.0269C116.456 10.657 115.558 11.5319 114.903 12.6492C114.248 13.7666 113.92 15.0174 113.92 16.403C113.92 17.7873 114.248 19.0382 114.903 20.1567C115.558 21.2729 116.456 22.1478 117.595 22.7779ZM122.446 23.6645C123.472 23.5474 124.421 23.2499 125.294 22.7673C126.447 22.1302 127.348 21.2553 127.997 20.145C128.645 19.0347 128.969 17.7862 128.969 16.4018C128.969 15.0163 128.645 13.7689 127.997 12.6586C127.348 11.5483 126.448 10.6734 125.294 10.0363C124.421 9.55374 123.472 9.25625 122.446 9.13913C122.252 9.11687 122.083 9.27499 122.083 9.47058V10.1721C122.083 10.3408 122.21 10.479 122.377 10.5024C123.144 10.6067 123.858 10.8409 124.515 11.2075C125.436 11.7216 126.16 12.4349 126.685 13.3461C127.211 14.2573 127.473 15.2751 127.473 16.4006C127.473 17.525 127.211 18.5428 126.685 19.4552C126.159 20.3664 125.436 21.0796 124.515 21.5938C123.856 21.9615 123.143 22.1958 122.377 22.3C122.21 22.3223 122.083 22.4605 122.083 22.6303V23.3319C122.083 23.5286 122.251 23.6867 122.446 23.6645ZM131.365 9.29255H128.197C128.042 9.29255 127.916 9.41905 127.916 9.57482V10.3267C127.916 10.4825 128.042 10.609 128.197 10.609H131.365C131.52 10.609 131.646 10.4825 131.646 10.3267V9.57482C131.646 9.41905 131.52 9.29255 131.365 9.29255ZM140.069 9.29255H133.515C133.205 9.29255 132.953 9.54554 132.953 9.85708L132.954 23.4092C132.954 23.5649 133.08 23.6903 133.234 23.6903H134.19C134.345 23.6903 134.47 23.5638 134.47 23.4092V10.8913C134.47 10.7355 134.596 10.609 134.751 10.609H140.07C140.225 10.609 140.351 10.4825 140.351 10.3267V9.57482C140.35 9.41905 140.224 9.29255 140.069 9.29255ZM107.901 9.2012L104.973 9.18832C104.75 9.18832 104.57 9.36868 104.57 9.59238V10.1089C104.57 10.3326 104.75 10.513 104.973 10.513L107.584 10.5305C109.739 10.5305 111.593 12.1936 111.694 14.3557C111.803 16.6642 109.971 18.5697 107.697 18.5697H105.053C104.917 18.5697 104.806 18.681 104.806 18.818V19.6109C104.806 19.748 104.917 19.8592 105.053 19.8592H108.029C111.023 19.8592 113.437 17.3681 113.33 14.3358C113.229 11.4488 110.779 9.2012 107.901 9.2012ZM83.309 16.2097C83.1189 15.9849 83.1294 15.6511 83.3323 15.4379L87.4575 11.1021C87.6359 10.9147 87.5041 10.6043 87.2453 10.6043H86.4151C86.2577 10.6043 86.1073 10.6676 85.9977 10.7812L80.4874 16.4779C80.3859 16.5833 80.3288 16.7239 80.3288 16.8715V17.8576C80.3288 18.1211 80.646 18.2511 80.8302 18.0638L81.7256 17.1514C81.8469 17.0284 82.0463 17.0343 82.1594 17.1654L87.6324 23.49C87.7431 23.6176 87.9029 23.6903 88.0708 23.6903H88.9767C89.2262 23.6903 89.3615 23.3975 89.2006 23.2054L83.309 16.2097Z" fill="#DCDCDE"/>
</svg>
